<svg version="1.1" viewBox="0.0 0.0 600.0 371.0" fill="none" stroke="none" stroke-linecap="square" stroke-miterlimit="10" width="600" height="371" xmlns:xlink="http://www.w3.org/1999/xlink" xmlns="http://www.w3.org/2000/svg"><path fill="#ffffff" d="M0 0L600.0 0L600.0 371.0L0 371.0L0 0Z" fill-rule="nonzero"/><path stroke="#333333" stroke-width="1.0" stroke-linecap="butt" d="M77.5 300.5L581.5 300.5" fill-rule="nonzero"/><path stroke="#cccccc" stroke-width="1.0" stroke-linecap="butt" d="M77.5 229.5L581.5 229.5" fill-rule="nonzero"/><path stroke="#cccccc" stroke-width="1.0" stroke-linecap="butt" d="M77.5 159.5L581.5 159.5" fill-rule="nonzero"/><path stroke="#cccccc" stroke-width="1.0" stroke-linecap="butt" d="M77.5 88.5L581.5 88.5" fill-rule="nonzero"/><clipPath id="id_0"><path d="M77.55 88.28333L581.45 88.28333L581.45 300.45L77.55 300.45L77.55 88.28333Z" clip-rule="nonzero"/></clipPath><path fill="#4285f4" fill-opacity="0.3019608" clip-path="url(#id_0)" d="M77.55 130.71666L159.53334 130.71666C160.63791 130.71666 161.53334 131.61209 161.53334 132.71666L161.53334 135.7889C161.53334 136.89346 162.42876 137.7889 163.53334 137.7889L243.51666 137.7889C244.62123 137.7889 245.51666 138.68433 245.51666 139.7889L245.51666 149.93333C245.51666 151.0379 246.4121 151.93333 247.51666 151.93333L285.50833 151.93333C286.6129 151.93333 287.50833 152.82877 287.50833 153.93333L287.50833 171.15C287.50833 172.25456 288.40378 173.15 289.50833 173.15L327.5 173.15C328.60458 173.15 329.5 174.04543 329.5 175.15L329.5 213.58333C329.5 214.6879 330.39542 215.58333 331.5 215.58333L369.49167 215.58333C370.59622 215.58333 371.49167 216.47876 371.49167 217.58333L371.49167 220.65555C371.49167 221.76013 372.3871 222.65555 373.49167 222.65555L411.48334 222.65555C412.5879 222.65555 413.48334 223.55098 413.48334 224.65555L413.48334 234.8C413.48334 235.90457 414.37875 236.8 415.48334 236.8L453.475 236.8C454.57956 236.8 455.475 237.69543 455.475 238.8L455.475 284.30554C455.475 285.41013 456.37042 286.30554 457.475 286.30554L537.4583 286.30554C538.5629 286.30554 539.4583 287.201 539.4583 288.30554L539.4583 298.45C539.4583 299.55457 540.35376 300.45 541.4583 300.45L581.45 300.45L581.45 300.45L77.55 300.45Z" fill-rule="nonzero"/><path fill="#ea4335" fill-opacity="0.3019608" clip-path="url(#id_0)" d="M77.55 109.5L117.541664 109.5C118.64623 109.5 119.541664 110.39543 119.541664 111.5L119.541664 121.64445C119.541664 122.749016 120.437096 123.64445 121.541664 123.64445L159.53334 123.64445C160.63791 123.64445 161.53334 124.53987 161.53334 125.64445L161.53334 157.00555C161.53334 158.11012 162.42876 159.00555 163.53334 159.00555L201.525 159.00555C202.62956 159.00555 203.525 159.90099 203.525 161.00555L203.525 185.29445C203.525 186.39902 204.42043 187.29445 205.525 187.29445L243.51666 187.29445C244.62123 187.29445 245.51666 188.18988 245.51666 189.29445L245.51666 199.43889C245.51666 200.54346 246.4121 201.43889 247.51666 201.43889L285.50833 201.43889C286.6129 201.43889 287.50833 202.33432 287.50833 203.43889L287.50833 220.65555C287.50833 221.76013 288.40378 222.65555 289.50833 222.65555L327.5 222.65555C328.60458 222.65555 329.5 223.55098 329.5 224.65555L329.5 256.01666C329.5 257.12125 330.39542 258.01666 331.5 258.01666L369.49167 258.01666C370.59622 258.01666 371.49167 258.9121 371.49167 260.01666L371.49167 263.0889C371.49167 264.19345 372.3871 265.0889 373.49167 265.0889L411.48334 265.0889C412.5879 265.0889 413.48334 265.9843 413.48334 267.0889L413.48334 270.1611C413.48334 271.2657 414.37875 272.1611 415.48334 272.1611L453.475 272.1611C454.57956 272.1611 455.475 273.05655 455.475 274.1611L455.475 291.37778C455.475 292.48236 456.37042 293.37778 457.475 293.37778L495.46667 293.37778C496.57123 293.37778 497.46667 294.2732 497.46667 295.37778L497.46667 298.45C497.46667 299.55457 498.3621 300.45 499.46667 300.45L539.4583 300.45L539.4583 300.45L77.55 300.45Z" fill-rule="nonzero"/><path stroke="#4285f4" stroke-width="2.0" stroke-linecap="butt" clip-path="url(#id_0)" d="M77.55 130.71666L159.53334 130.71666C160.63791 130.71666 161.53334 131.61209 161.53334 132.71666L161.53334 135.7889C161.53334 136.89346 162.42876 137.7889 163.53334 137.7889L243.51666 137.7889C244.62123 137.7889 245.51666 138.68433 245.51666 139.7889L245.51666 149.93333C245.51666 151.0379 246.4121 151.93333 247.51666 151.93333L285.50833 151.93333C286.6129 151.93333 287.50833 152.82877 287.50833 153.93333L287.50833 171.15C287.50833 172.25456 288.40378 173.15 289.50833 173.15L327.5 173.15C328.60458 173.15 329.5 174.04543 329.5 175.15L329.5 213.58333C329.5 214.6879 330.39542 215.58333 331.5 215.58333L369.49167 215.58333C370.59622 215.58333 371.49167 216.47876 371.49167 217.58333L371.49167 220.65555C371.49167 221.76013 372.3871 222.65555 373.49167 222.65555L411.48334 222.65555C412.5879 222.65555 413.48334 223.55098 413.48334 224.65555L413.48334 234.8C413.48334 235.90457 414.37875 236.8 415.48334 236.8L453.475 236.8C454.57956 236.8 455.475 237.69543 455.475 238.8L455.475 284.30554C455.475 285.41013 456.37042 286.30554 457.475 286.30554L537.4583 286.30554C538.5629 286.30554 539.4583 287.201 539.4583 288.30554L539.4583 298.45C539.4583 299.55457 540.35376 300.45 541.4583 300.45L581.45 300.45" fill-rule="nonzero"/><path stroke="#ea4335" stroke-width="2.0" stroke-linecap="butt" clip-path="url(#id_0)" d="M77.55 109.5L117.541664 109.5C118.64623 109.5 119.541664 110.39543 119.541664 111.5L119.541664 121.64445C119.541664 122.749016 120.437096 123.64445 121.541664 123.64445L159.53334 123.64445C160.63791 123.64445 161.53334 124.53987 161.53334 125.64445L161.53334 157.00555C161.53334 158.11012 162.42876 159.00555 163.53334 159.00555L201.525 159.00555C202.62956 159.00555 203.525 159.90099 203.525 161.00555L203.525 185.29445C203.525 186.39902 204.42043 187.29445 205.525 187.29445L243.51666 187.29445C244.62123 187.29445 245.51666 188.18988 245.51666 189.29445L245.51666 199.43889C245.51666 200.54346 246.4121 201.43889 247.51666 201.43889L285.50833 201.43889C286.6129 201.43889 287.50833 202.33432 287.50833 203.43889L287.50833 220.65555C287.50833 221.76013 288.40378 222.65555 289.50833 222.65555L327.5 222.65555C328.60458 222.65555 329.5 223.55098 329.5 224.65555L329.5 256.01666C329.5 257.12125 330.39542 258.01666 331.5 258.01666L369.49167 258.01666C370.59622 258.01666 371.49167 258.9121 371.49167 260.01666L371.49167 263.0889C371.49167 264.19345 372.3871 265.0889 373.49167 265.0889L411.48334 265.0889C412.5879 265.0889 413.48334 265.9843 413.48334 267.0889L413.48334 270.1611C413.48334 271.2657 414.37875 272.1611 415.48334 272.1611L453.475 272.1611C454.57956 272.1611 455.475 273.05655 455.475 274.1611L455.475 291.37778C455.475 292.48236 456.37042 293.37778 457.475 293.37778L495.46667 293.37778C496.57123 293.37778 497.46667 294.2732 497.46667 295.37778L497.46667 298.45C497.46667 299.55457 498.3621 300.45 499.46667 300.45L539.4583 300.45" fill-rule="nonzero"/><path fill="#000000" fill-opacity="0.0" clip-path="url(#id_0)" d="M101.54583 130.71666C101.54583 132.37352 100.20269 133.71666 98.54583 133.71666C96.88898 133.71666 95.54583 132.37352 95.54583 130.71666C95.54583 129.05981 96.88898 127.71667 98.54583 127.71667C100.20269 127.71667 101.54583 129.05981 101.54583 130.71666Z" fill-rule="nonzero"/><path fill="#000000" fill-opacity="0.0" clip-path="url(#id_0)" d="M143.5375 130.71666C143.5375 132.37352 142.19435 133.71666 140.5375 133.71666C138.88065 133.71666 137.5375 132.37352 137.5375 130.71666C137.5375 129.05981 138.88065 127.71667 140.5375 127.71667C142.19435 127.71667 143.5375 129.05981 143.5375 130.71666Z" fill-rule="nonzero"/><path fill="#000000" fill-opacity="0.0" clip-path="url(#id_0)" d="M185.52916 137.7889C185.52916 139.44574 184.18602 140.7889 182.52916 140.7889C180.87231 140.7889 179.52916 139.44574 179.52916 137.7889C179.52916 136.13203 180.87231 134.7889 182.52916 134.7889C184.18602 134.7889 185.52916 136.13203 185.52916 137.7889Z" fill-rule="nonzero"/><path fill="#000000" fill-opacity="0.0" clip-path="url(#id_0)" d="M227.52083 137.7889C227.52083 139.44574 226.17769 140.7889 224.52083 140.7889C222.86398 140.7889 221.52083 139.44574 221.52083 137.7889C221.52083 136.13203 222.86398 134.7889 224.52083 134.7889C226.17769 134.7889 227.52083 136.13203 227.52083 137.7889Z" fill-rule="nonzero"/><path fill="#000000" fill-opacity="0.0" clip-path="url(#id_0)" d="M269.5125 151.93333C269.5125 153.5902 268.16934 154.93333 266.5125 154.93333C264.85565 154.93333 263.5125 153.5902 263.5125 151.93333C263.5125 150.27647 264.85565 148.93333 266.5125 148.93333C268.16934 148.93333 269.5125 150.27647 269.5125 151.93333Z" fill-rule="nonzero"/><path fill="#000000" fill-opacity="0.0" clip-path="url(#id_0)" d="M311.50418 173.15C311.50418 174.80685 310.161 176.15 308.50418 176.15C306.84732 176.15 305.50418 174.80685 305.50418 173.15C305.50418 171.49315 306.84732 170.15 308.50418 170.15C310.161 170.15 311.50418 171.49315 311.50418 173.15Z" fill-rule="nonzero"/><path fill="#000000" fill-opacity="0.0" clip-path="url(#id_0)" d="M353.49582 215.58333C353.49582 217.24019 352.15268 218.58333 350.49582 218.58333C348.839 218.58333 347.49582 217.24019 347.49582 215.58333C347.49582 213.92648 348.839 212.58333 350.49582 212.58333C352.15268 212.58333 353.49582 213.92648 353.49582 215.58333Z" fill-rule="nonzero"/><path fill="#000000" fill-opacity="0.0" clip-path="url(#id_0)" d="M395.4875 222.65555C395.4875 224.31241 394.14435 225.65555 392.4875 225.65555C390.83066 225.65555 389.4875 224.31241 389.4875 222.65555C389.4875 220.9987 390.83066 219.65555 392.4875 219.65555C394.14435 219.65555 395.4875 220.9987 395.4875 222.65555Z" fill-rule="nonzero"/><path fill="#000000" fill-opacity="0.0" clip-path="url(#id_0)" d="M437.47916 236.8C437.47916 238.45685 436.13602 239.8 434.47916 239.8C432.82233 239.8 431.47916 238.45685 431.47916 236.8C431.47916 235.14314 432.82233 233.8 434.47916 233.8C436.13602 233.8 437.47916 235.14314 437.47916 236.8Z" fill-rule="nonzero"/><path fill="#000000" fill-opacity="0.0" clip-path="url(#id_0)" d="M479.47083 286.30554C479.47083 287.9624 478.1277 289.30554 476.47083 289.30554C474.81396 289.30554 473.47083 287.9624 473.47083 286.30554C473.47083 284.6487 474.81396 283.30554 476.47083 283.30554C478.1277 283.30554 479.47083 284.6487 479.47083 286.30554Z" fill-rule="nonzero"/><path fill="#000000" fill-opacity="0.0" clip-path="url(#id_0)" d="M521.4625 286.30554C521.4625 287.9624 520.1194 289.30554 518.4625 289.30554C516.80566 289.30554 515.4625 287.9624 515.4625 286.30554C515.4625 284.6487 516.80566 283.30554 518.4625 283.30554C520.1194 283.30554 521.4625 284.6487 521.4625 286.30554Z" fill-rule="nonzero"/><path fill="#000000" fill-opacity="0.0" clip-path="url(#id_0)" d="M563.45416 300.45C563.45416 302.10684 562.111 303.45 560.45416 303.45C558.7973 303.45 557.45416 302.10684 557.45416 300.45C557.45416 298.79315 558.7973 297.45 560.45416 297.45C562.111 297.45 563.45416 298.79315 563.45416 300.45Z" fill-rule="nonzero"/><path fill="#000000" fill-opacity="0.0" clip-path="url(#id_0)" d="M101.54583 109.5C101.54583 111.15685 100.20269 112.5 98.54583 112.5C96.88898 112.5 95.54583 111.15685 95.54583 109.5C95.54583 107.84315 96.88898 106.5 98.54583 106.5C100.20269 106.5 101.54583 107.84315 101.54583 109.5Z" fill-rule="nonzero"/><path fill="#000000" fill-opacity="0.0" clip-path="url(#id_0)" d="M143.5375 123.64445C143.5375 125.3013 142.19435 126.64445 140.5375 126.64445C138.88065 126.64445 137.5375 125.3013 137.5375 123.64445C137.5375 121.98759 138.88065 120.64445 140.5375 120.64445C142.19435 120.64445 143.5375 121.98759 143.5375 123.64445Z" fill-rule="nonzero"/><path fill="#000000" fill-opacity="0.0" clip-path="url(#id_0)" d="M185.52916 159.00555C185.52916 160.66241 184.18602 162.00555 182.52916 162.00555C180.87231 162.00555 179.52916 160.66241 179.52916 159.00555C179.52916 157.3487 180.87231 156.00555 182.52916 156.00555C184.18602 156.00555 185.52916 157.3487 185.52916 159.00555Z" fill-rule="nonzero"/><path fill="#000000" fill-opacity="0.0" clip-path="url(#id_0)" d="M227.52083 187.29445C227.52083 188.9513 226.17769 190.29445 224.52083 190.29445C222.86398 190.29445 221.52083 188.9513 221.52083 187.29445C221.52083 185.63759 222.86398 184.29445 224.52083 184.29445C226.17769 184.29445 227.52083 185.63759 227.52083 187.29445Z" fill-rule="nonzero"/><path fill="#000000" fill-opacity="0.0" clip-path="url(#id_0)" d="M269.5125 201.43889C269.5125 203.09575 268.16934 204.43889 266.5125 204.43889C264.85565 204.43889 263.5125 203.09575 263.5125 201.43889C263.5125 199.78203 264.85565 198.43889 266.5125 198.43889C268.16934 198.43889 269.5125 199.78203 269.5125 201.43889Z" fill-rule="nonzero"/><path fill="#000000" fill-opacity="0.0" clip-path="url(#id_0)" d="M311.50418 222.65555C311.50418 224.31241 310.161 225.65555 308.50418 225.65555C306.84732 225.65555 305.50418 224.31241 305.50418 222.65555C305.50418 220.9987 306.84732 219.65555 308.50418 219.65555C310.161 219.65555 311.50418 220.9987 311.50418 222.65555Z" fill-rule="nonzero"/><path fill="#000000" fill-opacity="0.0" clip-path="url(#id_0)" d="M353.49582 258.01666C353.49582 259.67352 352.15268 261.01666 350.49582 261.01666C348.839 261.01666 347.49582 259.67352 347.49582 258.01666C347.49582 256.3598 348.839 255.01666 350.49582 255.01666C352.15268 255.01666 353.49582 256.3598 353.49582 258.01666Z" fill-rule="nonzero"/><path fill="#000000" fill-opacity="0.0" clip-path="url(#id_0)" d="M395.4875 265.0889C395.4875 266.74576 394.14435 268.0889 392.4875 268.0889C390.83066 268.0889 389.4875 266.74576 389.4875 265.0889C389.4875 263.43204 390.83066 262.0889 392.4875 262.0889C394.14435 262.0889 395.4875 263.43204 395.4875 265.0889Z" fill-rule="nonzero"/><path fill="#000000" fill-opacity="0.0" clip-path="url(#id_0)" d="M437.47916 272.1611C437.47916 273.81796 436.13602 275.1611 434.47916 275.1611C432.82233 275.1611 431.47916 273.81796 431.47916 272.1611C431.47916 270.50424 432.82233 269.1611 434.47916 269.1611C436.13602 269.1611 437.47916 270.50424 437.47916 272.1611Z" fill-rule="nonzero"/><path fill="#000000" fill-opacity="0.0" clip-path="url(#id_0)" d="M479.47083 293.37778C479.47083 295.03464 478.1277 296.37778 476.47083 296.37778C474.81396 296.37778 473.47083 295.03464 473.47083 293.37778C473.47083 291.72092 474.81396 290.37778 476.47083 290.37778C478.1277 290.37778 479.47083 291.72092 479.47083 293.37778Z" fill-rule="nonzero"/><path fill="#000000" fill-opacity="0.0" clip-path="url(#id_0)" d="M521.4625 300.45C521.4625 302.10684 520.1194 303.45 518.4625 303.45C516.80566 303.45 515.4625 302.10684 515.4625 300.45C515.4625 298.79315 516.80566 297.45 518.4625 297.45C520.1194 297.45 521.4625 298.79315 521.4625 300.45Z" fill-rule="nonzero"/><path fill="#000000" d="M293.60938 349.45L293.60938 341.8719L290.78125 341.8719L290.78125 340.85626L297.59375 340.85626L297.59375 341.8719L294.75 341.8719L294.75 349.45L293.60938 349.45ZM298.29688 349.45L298.29688 340.85626L299.34375 340.85626L299.34375 343.9344Q300.07812 343.09064 301.20312 343.09064Q301.90625 343.09064 302.40625 343.3719Q302.92188 343.6375 303.14062 344.1219Q303.35938 344.59064 303.35938 345.5125L303.35938 349.45L302.3125 349.45L302.3125 345.5125Q302.3125 344.71564 301.96875 344.35626Q301.625 343.9969 301.0 343.9969Q300.53125 343.9969 300.10938 344.2469Q299.70312 344.48126 299.51562 344.90314Q299.34375 345.3094 299.34375 346.04376L299.34375 349.45L298.29688 349.45ZM305.28125 349.45L305.28125 343.23126L306.23438 343.23126L306.23438 344.16876Q306.59375 343.5125 306.89062 343.3094Q307.20312 343.09064 307.57812 343.09064Q308.10938 343.09064 308.65625 343.41876L308.29688 344.40314Q307.90625 344.16876 307.53125 344.16876Q307.17188 344.16876 306.89062 344.3875Q306.625 344.59064 306.51562 344.96564Q306.32812 345.52814 306.32812 346.1844L306.32812 349.45L305.28125 349.45ZM313.54688 347.45L314.64062 347.575Q314.39062 348.52814 313.6875 349.0594Q312.98438 349.59064 311.90625 349.59064Q310.54688 349.59064 309.73438 348.7469Q308.9375 347.90314 308.9375 346.3875Q308.9375 344.825 309.75 343.96564Q310.5625 343.09064 311.84375 343.09064Q313.09375 343.09064 313.875 343.9344Q314.67188 344.77814 314.67188 346.325Q314.67188 346.41876 314.67188 346.60626L310.03125 346.60626Q310.09375 347.6375 310.60938 348.1844Q311.125 348.71564 311.90625 348.71564Q312.48438 348.71564 312.89062 348.41876Q313.3125 348.10626 313.54688 347.45ZM310.09375 345.7469L313.5625 345.7469Q313.5 344.95 313.17188 344.5594Q312.65625 343.95 311.85938 343.95Q311.125 343.95 310.625 344.4344Q310.14062 344.91876 310.09375 345.7469ZM315.875 347.59064L316.90625 347.4344Q317.0 348.0594 317.39062 348.3875Q317.79688 348.71564 318.53125 348.71564Q319.25 348.71564 319.59375 348.4344Q319.95312 348.1375 319.95312 347.73126Q319.95312 347.3719 319.64062 347.16876Q319.42188 347.02814 318.5625 346.8094Q317.40625 346.5125 316.95312 346.3094Q316.51562 346.09064 316.28125 345.71564Q316.04688 345.34064 316.04688 344.8719Q316.04688 344.46564 316.23438 344.10626Q316.42188 343.7469 316.75 343.5125Q317.0 343.34064 317.42188 343.21564Q317.84375 343.09064 318.34375 343.09064Q319.0625 343.09064 319.60938 343.3094Q320.17188 343.5125 320.4375 343.8719Q320.70312 344.23126 320.79688 344.825L319.76562 344.96564Q319.70312 344.4969 319.35938 344.23126Q319.03125 343.95 318.40625 343.95Q317.6875 343.95 317.375 344.2Q317.0625 344.4344 317.0625 344.7625Q317.0625 344.96564 317.1875 345.1219Q317.32812 345.29376 317.59375 345.40314Q317.75 345.46564 318.53125 345.66876Q319.65625 345.98126 320.09375 346.16876Q320.53125 346.35626 320.78125 346.71564Q321.03125 347.075 321.03125 347.6219Q321.03125 348.15314 320.71875 348.6219Q320.42188 349.075 319.84375 349.34064Q319.26562 349.59064 318.53125 349.59064Q317.3125 349.59064 316.67188 349.09064Q316.04688 348.575 315.875 347.59064ZM323.29688 349.45L323.29688 340.85626L324.34375 340.85626L324.34375 343.9344Q325.07812 343.09064 326.20312 343.09064Q326.90625 343.09064 327.40625 343.3719Q327.92188 343.6375 328.14062 344.1219Q328.35938 344.59064 328.35938 345.5125L328.35938 349.45L327.3125 349.45L327.3125 345.5125Q327.3125 344.71564 326.96875 344.35626Q326.625 343.9969 326.0 343.9969Q325.53125 343.9969 325.10938 344.2469Q324.70312 344.48126 324.51562 344.90314Q324.34375 345.3094 324.34375 346.04376L324.34375 349.45L323.29688 349.45ZM329.90625 346.34064Q329.90625 344.60626 330.85938 343.77814Q331.65625 343.09064 332.8125 343.09064Q334.09375 343.09064 334.90625 343.9344Q335.73438 344.7625 335.73438 346.2469Q335.73438 347.45 335.375 348.1375Q335.01562 348.825 334.3125 349.21564Q333.625 349.59064 332.8125 349.59064Q331.51562 349.59064 330.70312 348.7625Q329.90625 347.91876 329.90625 346.34064ZM330.98438 346.34064Q330.98438 347.52814 331.5 348.1219Q332.03125 348.71564 332.8125 348.71564Q333.60938 348.71564 334.125 348.1219Q334.64062 347.52814 334.64062 346.3094Q334.64062 345.15314 334.10938 344.5594Q333.59375 343.96564 332.8125 343.96564Q332.03125 343.96564 331.5 344.5594Q330.98438 345.1375 330.98438 346.34064ZM337.26562 349.45L337.26562 340.85626L338.32812 340.85626L338.32812 349.45L337.26562 349.45ZM344.32812 349.45L344.32812 348.66876Q343.73438 349.59064 342.59375 349.59064Q341.84375 349.59064 341.21875 349.1844Q340.59375 348.7625 340.25 348.02814Q339.90625 347.29376 339.90625 346.34064Q339.90625 345.41876 340.21875 344.65314Q340.53125 343.8875 341.15625 343.4969Q341.78125 343.09064 342.54688 343.09064Q343.10938 343.09064 343.54688 343.325Q343.98438 343.5594 344.26562 343.9344L344.26562 340.85626L345.3125 340.85626L345.3125 349.45L344.32812 349.45ZM341.0 346.34064Q341.0 347.54376 341.5 348.1375Q342.0 348.71564 342.6875 348.71564Q343.375 348.71564 343.85938 348.15314Q344.34375 347.59064 344.34375 346.4344Q344.34375 345.15314 343.84375 344.5594Q343.35938 343.96564 342.64062 343.96564Q341.9375 343.96564 341.46875 344.54376Q341.0 345.10626 341.0 346.34064ZM352.3125 351.98126Q351.4375 350.8719 350.82812 349.40314Q350.23438 347.91876 350.23438 346.34064Q350.23438 344.95 350.67188 343.66876Q351.20312 342.1844 352.3125 340.71564L353.0625 340.71564Q352.35938 341.9344 352.125 342.45Q351.76562 343.2625 351.5625 344.1375Q351.3125 345.23126 351.3125 346.34064Q351.3125 349.16876 353.0625 351.98126L352.3125 351.98126ZM354.20312 342.91876Q354.20312 341.9969 354.65625 341.35626Q355.125 340.71564 356.0 340.71564Q356.8125 340.71564 357.34375 341.29376Q357.875 341.8719 357.875 342.98126Q357.875 344.075 357.32812 344.66876Q356.79688 345.2469 356.01562 345.2469Q355.23438 345.2469 354.71875 344.66876Q354.20312 344.09064 354.20312 342.91876ZM356.03125 341.4344Q355.64062 341.4344 355.375 341.77814Q355.125 342.1219 355.125 343.02814Q355.125 343.85626 355.375 344.2Q355.64062 344.52814 356.03125 344.52814Q356.4375 344.52814 356.6875 344.1844Q356.95312 343.84064 356.95312 342.95Q356.95312 342.10626 356.6875 341.77814Q356.42188 341.4344 356.03125 341.4344ZM356.03125 349.7625L360.73438 340.71564L361.59375 340.71564L356.90625 349.7625L356.03125 349.7625ZM359.75 347.4344Q359.75 346.5125 360.20312 345.8719Q360.67188 345.23126 361.5625 345.23126Q362.375 345.23126 362.90625 345.8094Q363.4375 346.3719 363.4375 347.4969Q363.4375 348.59064 362.89062 349.1844Q362.35938 349.7625 361.5625 349.7625Q360.79688 349.7625 360.26562 349.1844Q359.75 348.60626 359.75 347.4344ZM361.59375 345.95Q361.1875 345.95 360.92188 346.29376Q360.67188 346.6375 360.67188 347.54376Q360.67188 348.35626 360.9375 348.7Q361.20312 349.04376 361.59375 349.04376Q361.98438 349.04376 362.25 348.7Q362.51562 348.35626 362.51562 347.45Q362.51562 346.6219 362.25 346.29376Q361.98438 345.95 361.59375 345.95ZM365.98438 351.98126L365.23438 351.98126Q366.98438 349.16876 366.98438 346.34064Q366.98438 345.2469 366.73438 344.15314Q366.53125 343.27814 366.17188 342.46564Q365.9375 341.95 365.23438 340.71564L365.98438 340.71564Q367.07812 342.1844 367.60938 343.66876Q368.0625 344.95 368.0625 346.34064Q368.0625 347.91876 367.45312 349.40314Q366.84375 350.8719 365.98438 351.98126Z" fill-rule="nonzero"/><path fill="#000000" d="M29.690638 233.7573L27.206263 233.2573L27.206263 234.24167L26.331263 234.24167L26.331263 233.0698L24.206263 232.64792L24.206263 234.24167L23.331263 234.24167L23.331263 232.46042L20.815638 231.96042L20.815638 231.08542L23.331263 231.58542L23.331263 229.74167L20.815638 229.22604L20.815638 228.35104L23.331263 228.85104L23.331263 227.85104L24.206263 227.85104L24.206263 229.03854L26.331263 229.47604L26.331263 227.85104L27.206263 227.85104L27.206263 229.64792L29.690638 230.16354L29.690638 231.03854L27.206263 230.53854L27.206263 232.36667L29.690638 232.8823L29.690638 233.7573ZM26.331263 232.1948L26.331263 230.35104L24.206263 229.91354L24.206263 231.7573L26.331263 232.1948ZM26.440638 223.96042Q24.706263 223.96042 23.878138 223.0073Q23.190638 222.21042 23.190638 221.05417Q23.190638 219.77292 24.034388 218.96042Q24.862513 218.1323 26.346888 218.1323Q27.550013 218.1323 28.237513 218.49167Q28.925013 218.85104 29.315638 219.55417Q29.690638 220.24167 29.690638 221.05417Q29.690638 222.35104 28.862513 223.16354Q28.018763 223.96042 26.440638 223.96042ZM26.440638 222.8823Q27.628138 222.8823 28.221888 222.36667Q28.815638 221.83542 28.815638 221.05417Q28.815638 220.2573 28.221888 219.74167Q27.628138 219.22604 26.409388 219.22604Q25.253138 219.22604 24.659388 219.7573Q24.065638 220.27292 24.065638 221.05417Q24.065638 221.83542 24.659388 222.36667Q25.237513 222.8823 26.440638 222.8823ZM29.550013 215.60104L29.550013 216.58542L20.956263 216.58542L20.956263 215.52292L24.018763 215.52292Q23.190638 214.85104 23.190638 213.8198Q23.190638 213.24167 23.425013 212.74167Q23.643763 212.22604 24.065638 211.89792Q24.487513 211.55417 25.081263 211.36667Q25.675013 211.17917 26.346888 211.17917Q27.940638 211.17917 28.815638 211.97604Q29.690638 212.77292 29.690638 213.86667Q29.690638 214.97604 28.768763 215.60104L29.550013 215.60104ZM26.393763 215.61667Q27.503138 215.61667 28.003138 215.30417Q28.815638 214.80417 28.815638 213.96042Q28.815638 213.27292 28.221888 212.77292Q27.628138 212.2573 26.425013 212.2573Q25.206263 212.2573 24.628138 212.74167Q24.050013 213.22604 24.050013 213.91354Q24.050013 214.60104 24.659388 215.11667Q25.253138 215.61667 26.393763 215.61667ZM22.190638 209.58542L20.956263 209.58542L20.956263 208.52292L22.190638 208.52292L22.190638 209.58542ZM31.971888 210.91354L31.065638 210.72604Q31.143763 210.39792 31.143763 210.22604Q31.143763 209.89792 30.925013 209.74167Q30.721888 209.58542 29.862513 209.58542L23.331263 209.58542L23.331263 208.52292L29.893763 208.52292Q31.034388 208.52292 31.487513 208.8198Q32.08126 209.21042 32.08126 210.08542Q32.08126 210.52292 31.971888 210.91354ZM27.550013 202.3198L27.675013 201.22604Q28.628138 201.47604 29.159388 202.17917Q29.690638 202.8823 29.690638 203.96042Q29.690638 205.3198 28.846888 206.1323Q28.003138 206.92917 26.487513 206.92917Q24.925013 206.92917 24.065638 206.11667Q23.190638 205.30417 23.190638 204.02292Q23.190638 202.77292 24.034388 201.99167Q24.878138 201.1948 26.425013 201.1948Q26.518763 201.1948 26.706263 201.1948L26.706263 205.83542Q27.737513 205.77292 28.284388 205.2573Q28.815638 204.74167 28.815638 203.96042Q28.815638 203.3823 28.518763 202.97604Q28.206263 202.55417 27.550013 202.3198ZM25.846888 205.77292L25.846888 202.30417Q25.050013 202.36667 24.659388 202.6948Q24.050013 203.21042 24.050013 204.0073Q24.050013 204.74167 24.534388 205.24167Q25.018763 205.72604 25.846888 205.77292ZM27.268763 195.5073L27.409388 194.47604Q28.471888 194.64792 29.081263 195.35104Q29.690638 196.05417 29.690638 197.0698Q29.690638 198.35104 28.862513 199.1323Q28.018763 199.89792 26.456263 199.89792Q25.456263 199.89792 24.706263 199.5698Q23.940638 199.22604 23.565638 198.55417Q23.190638 197.86667 23.190638 197.05417Q23.190638 196.05417 23.706263 195.41354Q24.206263 194.7573 25.159388 194.5698L25.315638 195.60104Q24.690638 195.74167 24.378138 196.11667Q24.050013 196.49167 24.050013 197.02292Q24.050013 197.8198 24.628138 198.3198Q25.190638 198.8198 26.425013 198.8198Q27.690638 198.8198 28.253138 198.33542Q28.815638 197.85104 28.815638 197.08542Q28.815638 196.46042 28.440638 196.05417Q28.065638 195.6323 27.268763 195.5073ZM28.612513 191.27292L29.534388 191.11667Q29.628138 191.5698 29.628138 191.91354Q29.628138 192.49167 29.456263 192.80417Q29.268763 193.11667 28.971888 193.2573Q28.675013 193.3823 27.721888 193.3823L24.143763 193.3823L24.143763 194.14792L23.331263 194.14792L23.331263 193.3823L21.784388 193.3823L21.159388 192.33542L23.331263 192.33542L23.331263 191.27292L24.143763 191.27292L24.143763 192.33542L27.784388 192.33542Q28.237513 192.33542 28.362513 192.28854Q28.487513 192.22604 28.565638 192.10104Q28.643763 191.97604 28.643763 191.74167Q28.643763 191.55417 28.612513 191.27292ZM22.175013 190.5698L20.956263 190.5698L20.956263 189.5073L22.175013 189.5073L22.175013 190.5698ZM29.550013 190.5698L23.331263 190.5698L23.331263 189.5073L29.550013 189.5073L29.550013 190.5698ZM26.440638 187.96042Q24.706263 187.96042 23.878138 187.0073Q23.190638 186.21042 23.190638 185.05417Q23.190638 183.77292 24.034388 182.96042Q24.862513 182.1323 26.346888 182.1323Q27.550013 182.1323 28.237513 182.49167Q28.925013 182.85104 29.315638 183.55417Q29.690638 184.24167 29.690638 185.05417Q29.690638 186.35104 28.862513 187.16354Q28.018763 187.96042 26.440638 187.96042ZM26.440638 186.8823Q27.628138 186.8823 28.221888 186.36667Q28.815638 185.83542 28.815638 185.05417Q28.815638 184.2573 28.221888 183.74167Q27.628138 183.22604 26.409388 183.22604Q25.253138 183.22604 24.659388 183.7573Q24.065638 184.27292 24.065638 185.05417Q24.065638 185.83542 24.659388 186.36667Q25.237513 186.8823 26.440638 186.8823ZM29.550013 180.5698L23.331263 180.5698L23.331263 179.6323L24.206263 179.6323Q23.190638 178.9448 23.190638 177.64792Q23.190638 177.08542 23.393763 176.61667Q23.596888 176.1323 23.925013 175.89792Q24.253138 175.66354 24.690638 175.5698Q24.987513 175.52292 25.721888 175.52292L29.550013 175.52292L29.550013 176.5698L25.768763 176.5698Q25.112513 176.5698 24.800013 176.6948Q24.487513 176.8198 24.300013 177.1323Q24.096888 177.4448 24.096888 177.86667Q24.096888 178.53854 24.534388 179.03854Q24.956263 179.52292 26.143763 179.52292L29.550013 179.52292L29.550013 180.5698ZM27.690638 173.99167L27.534388 172.96042Q28.159388 172.86667 28.487513 172.47604Q28.815638 172.0698 28.815638 171.33542Q28.815638 170.61667 28.534388 170.27292Q28.237513 169.91354 27.831263 169.91354Q27.471888 169.91354 27.268763 170.22604Q27.128138 170.4448 26.909388 171.30417Q26.612513 172.46042 26.409388 172.91354Q26.190638 173.35104 25.815638 173.58542Q25.440638 173.8198 24.971888 173.8198Q24.565638 173.8198 24.206263 173.6323Q23.846888 173.4448 23.612513 173.11667Q23.440638 172.86667 23.315638 172.4448Q23.190638 172.02292 23.190638 171.52292Q23.190638 170.80417 23.409388 170.2573Q23.612513 169.6948 23.971888 169.42917Q24.331263 169.16354 24.925013 169.0698L25.065638 170.10104Q24.596888 170.16354 24.331263 170.5073Q24.050013 170.83542 24.050013 171.46042Q24.050013 172.17917 24.300013 172.49167Q24.534388 172.80417 24.862513 172.80417Q25.065638 172.80417 25.221888 172.67917Q25.393763 172.53854 25.503138 172.27292Q25.565638 172.11667 25.768763 171.33542Q26.081263 170.21042 26.268763 169.77292Q26.456263 169.33542 26.815638 169.08542Q27.175013 168.83542 27.721888 168.83542Q28.253138 168.83542 28.721888 169.14792Q29.175013 169.4448 29.440638 170.02292Q29.690638 170.60104 29.690638 171.33542Q29.690638 172.55417 29.190638 173.1948Q28.675013 173.8198 27.690638 173.99167Z" fill-rule="nonzero"/><path fill="#000000" d="M65.05 300.21564Q65.05 298.6844 65.3625 297.7625Q65.675 296.825 66.28438 296.325Q66.90938 295.825 67.84688 295.825Q68.53438 295.825 69.05 296.10626Q69.58125 296.3875 69.925 296.91876Q70.26875 297.4344 70.45625 298.1844Q70.64375 298.9344 70.64375 300.21564Q70.64375 301.73126 70.33125 302.65314Q70.03438 303.575 69.40938 304.09064Q68.8 304.59064 67.84688 304.59064Q66.6125 304.59064 65.89375 303.7Q65.05 302.6375 65.05 300.21564ZM66.12813 300.21564Q66.12813 302.325 66.62813 303.02814Q67.12813 303.73126 67.84688 303.73126Q68.58125 303.73126 69.06563 303.02814Q69.56563 302.325 69.56563 300.21564Q69.56563 298.09064 69.06563 297.40314Q68.58125 296.7 67.83125 296.7Q67.1125 296.7 66.675 297.3094Q66.12813 298.09064 66.12813 300.21564Z" fill-rule="nonzero"/><path fill="#000000" d="M62.01875 233.72778L60.971874 233.72778L60.971874 227.00903Q60.58125 227.36841 59.95625 227.74341Q59.346874 228.10278 58.8625 228.27466L58.8625 227.25903Q59.7375 226.83716 60.39375 226.25903Q61.065624 225.66528 61.346874 225.10278L62.01875 225.10278L62.01875 233.72778ZM65.05 229.49341Q65.05 227.96216 65.3625 227.04028Q65.675 226.10278 66.28438 225.60278Q66.90938 225.10278 67.84688 225.10278Q68.53438 225.10278 69.05 225.38403Q69.58125 225.66528 69.925 226.19653Q70.26875 226.71216 70.45625 227.46216Q70.64375 228.21216 70.64375 229.49341Q70.64375 231.00903 70.33125 231.93091Q70.03438 232.85278 69.40938 233.36841Q68.8 233.86841 67.84688 233.86841Q66.6125 233.86841 65.89375 232.97778Q65.05 231.91528 65.05 229.49341ZM66.12813 229.49341Q66.12813 231.60278 66.62813 232.30591Q67.12813 233.00903 67.84688 233.00903Q68.58125 233.00903 69.06563 232.30591Q69.56563 231.60278 69.56563 229.49341Q69.56563 227.36841 69.06563 226.68091Q68.58125 225.97778 67.83125 225.97778Q67.1125 225.97778 66.675 226.58716Q66.12813 227.36841 66.12813 229.49341Z" fill-rule="nonzero"/><path fill="#000000" d="M63.596874 161.98993L63.596874 163.00555L57.909374 163.00555Q57.909374 162.63055 58.034374 162.27118Q58.253124 161.69305 58.721874 161.13055Q59.20625 160.56805 60.1125 159.83368Q61.51875 158.67743 62.003124 158.00555Q62.503124 157.33368 62.503124 156.73993Q62.503124 156.11493 62.05 155.69305Q61.596874 155.25555 60.878124 155.25555Q60.1125 155.25555 59.659374 155.70868Q59.20625 156.1618 59.190624 156.9743L58.1125 156.86493Q58.221874 155.64618 58.940624 155.02118Q59.675 154.38055 60.909374 154.38055Q62.14375 154.38055 62.8625 155.06805Q63.58125 155.75555 63.58125 156.77118Q63.58125 157.2868 63.3625 157.7868Q63.159374 158.27118 62.659374 158.83368Q62.175 159.38055 61.05 160.33368Q60.096874 161.13055 59.815624 161.42743Q59.55 161.70868 59.378124 161.98993L63.596874 161.98993ZM65.05 158.77118Q65.05 157.23993 65.3625 156.31805Q65.675 155.38055 66.28438 154.88055Q66.90938 154.38055 67.84688 154.38055Q68.53438 154.38055 69.05 154.6618Q69.58125 154.94305 69.925 155.4743Q70.26875 155.98993 70.45625 156.73993Q70.64375 157.48993 70.64375 158.77118Q70.64375 160.2868 70.33125 161.20868Q70.03438 162.13055 69.40938 162.64618Q68.8 163.14618 67.84688 163.14618Q66.6125 163.14618 65.89375 162.25555Q65.05 161.19305 65.05 158.77118ZM66.12813 158.77118Q66.12813 160.88055 66.62813 161.58368Q67.12813 162.2868 67.84688 162.2868Q68.58125 162.2868 69.06563 161.58368Q69.56563 160.88055 69.56563 158.77118Q69.56563 156.64618 69.06563 155.95868Q68.58125 155.25555 67.83125 155.25555Q67.1125 155.25555 66.675 155.86493Q66.12813 156.64618 66.12813 158.77118Z" fill-rule="nonzero"/><path fill="#000000" d="M58.05 90.01771L59.1125 89.87708Q59.284374 90.76771 59.721874 91.17396Q60.159374 91.56458 60.784374 91.56458Q61.534374 91.56458 62.05 91.04896Q62.565624 90.53333 62.565624 89.76771Q62.565624 89.04896 62.08125 88.58021Q61.6125 88.09583 60.878124 88.09583Q60.58125 88.09583 60.128124 88.22083L60.253124 87.28333Q60.3625 87.29896 60.425 87.29896Q61.096874 87.29896 61.628124 86.95521Q62.175 86.59583 62.175 85.86146Q62.175 85.28333 61.784374 84.90833Q61.39375 84.51771 60.76875 84.51771Q60.159374 84.51771 59.7375 84.90833Q59.33125 85.29896 59.221874 86.06458L58.159374 85.87708Q58.346874 84.83021 59.034374 84.25208Q59.721874 83.65833 60.7375 83.65833Q61.440624 83.65833 62.034374 83.97083Q62.628124 84.26771 62.940624 84.78333Q63.253124 85.29896 63.253124 85.89271Q63.253124 86.43958 62.95625 86.90833Q62.659374 87.36146 62.08125 87.62708Q62.83125 87.79896 63.253124 88.36146Q63.675 88.90833 63.675 89.75208Q63.675 90.87708 62.846874 91.65833Q62.034374 92.43958 60.784374 92.43958Q59.659374 92.43958 58.909374 91.76771Q58.159374 91.08021 58.05 90.01771ZM65.05 88.04896Q65.05 86.51771 65.3625 85.59583Q65.675 84.65833 66.28438 84.15833Q66.90938 83.65833 67.84688 83.65833Q68.53438 83.65833 69.05 83.93958Q69.58125 84.22083 69.925 84.75208Q70.26875 85.26771 70.45625 86.01771Q70.64375 86.76771 70.64375 88.04896Q70.64375 89.56458 70.33125 90.48646Q70.03438 91.40833 69.40938 91.92396Q68.8 92.42396 67.84688 92.42396Q66.6125 92.42396 65.89375 91.53333Q65.05 90.47083 65.05 88.04896ZM66.12813 88.04896Q66.12813 90.15833 66.62813 90.86146Q67.12813 91.56458 67.84688 91.56458Q68.58125 91.56458 69.06563 90.86146Q69.56563 90.15833 69.56563 88.04896Q69.56563 85.92396 69.06563 85.23646Q68.58125 84.53333 67.83125 84.53333Q67.1125 84.53333 66.675 85.14271Q66.12813 85.92396 66.12813 88.04896Z" fill-rule="nonzero"/><path fill="#000000" d="M95.54583 315.2L96.655205 315.10626Q96.780205 315.91876 97.217705 316.325Q97.67083 316.73126 98.311455 316.73126Q99.061455 316.73126 99.592705 316.15314Q100.123955 315.575 100.123955 314.6375Q100.123955 313.73126 99.60833 313.21564Q99.10833 312.6844 98.280205 312.6844Q97.780205 312.6844 97.35833 312.91876Q96.95208 313.15314 96.717705 313.5125L95.73333 313.3875L96.561455 308.98126L100.842705 308.98126L100.842705 309.98126L97.405205 309.98126L96.95208 312.29376Q97.717705 311.7469 98.561455 311.7469Q99.686455 311.7469 100.45208 312.52814Q101.23333 313.3094 101.23333 314.54376Q101.23333 315.7 100.561455 316.5594Q99.73333 317.59064 98.311455 317.59064Q97.13958 317.59064 96.38958 316.9344Q95.655205 316.27814 95.54583 315.2Z" fill-rule="nonzero"/><path fill="#000000" d="M138.00626 317.45L136.95938 317.45L136.95938 310.73126Q136.56876 311.09064 135.94376 311.46564Q135.33438 311.825 134.85 311.9969L134.85 310.98126Q135.725 310.5594 136.38126 309.98126Q137.05313 309.3875 137.33438 308.825L138.00626 308.825L138.00626 317.45ZM141.0375 313.21564Q141.0375 311.6844 141.35 310.7625Q141.6625 309.825 142.27188 309.325Q142.89688 308.825 143.83438 308.825Q144.52188 308.825 145.0375 309.10626Q145.56876 309.3875 145.9125 309.91876Q146.25626 310.4344 146.44376 311.1844Q146.63126 311.9344 146.63126 313.21564Q146.63126 314.73126 146.31876 315.65314Q146.02188 316.575 145.39688 317.09064Q144.7875 317.59064 143.83438 317.59064Q142.6 317.59064 141.88126 316.7Q141.0375 315.6375 141.0375 313.21564ZM142.11563 313.21564Q142.11563 315.325 142.61563 316.02814Q143.11563 316.73126 143.83438 316.73126Q144.56876 316.73126 145.05313 316.02814Q145.55313 315.325 145.55313 313.21564Q145.55313 311.09064 145.05313 310.40314Q144.56876 309.7 143.81876 309.7Q143.1 309.7 142.6625 310.3094Q142.11563 311.09064 142.11563 313.21564Z" fill-rule="nonzero"/><path fill="#000000" d="M179.99791 317.45L178.95103 317.45L178.95103 310.73126Q178.56041 311.09064 177.93541 311.46564Q177.32603 311.825 176.84166 311.9969L176.84166 310.98126Q177.71666 310.5594 178.37291 309.98126Q179.04478 309.3875 179.32603 308.825L179.99791 308.825L179.99791 317.45ZM183.02916 315.2L184.13853 315.10626Q184.26353 315.91876 184.70103 316.325Q185.15416 316.73126 185.79478 316.73126Q186.54478 316.73126 187.07603 316.15314Q187.60728 315.575 187.60728 314.6375Q187.60728 313.73126 187.09166 313.21564Q186.59166 312.6844 185.76353 312.6844Q185.26353 312.6844 184.84166 312.91876Q184.43541 313.15314 184.20103 313.5125L183.21666 313.3875L184.04478 308.98126L188.32603 308.98126L188.32603 309.98126L184.88853 309.98126L184.43541 312.29376Q185.20103 311.7469 186.04478 311.7469Q187.16978 311.7469 187.93541 312.52814Q188.71666 313.3094 188.71666 314.54376Q188.71666 315.7 188.04478 316.5594Q187.21666 317.59064 185.79478 317.59064Q184.62291 317.59064 183.87291 316.9344Q183.13853 316.27814 183.02916 315.2Z" fill-rule="nonzero"/><path fill="#000000" d="M223.5677 316.4344L223.5677 317.45L217.8802 317.45Q217.8802 317.075 218.0052 316.71564Q218.22395 316.1375 218.6927 315.575Q219.17708 315.0125 220.08333 314.27814Q221.48958 313.1219 221.97395 312.45Q222.47395 311.77814 222.47395 311.1844Q222.47395 310.5594 222.02083 310.1375Q221.5677 309.7 220.84895 309.7Q220.08333 309.7 219.6302 310.15314Q219.17708 310.60626 219.16145 311.41876L218.08333 311.3094Q218.1927 310.09064 218.91145 309.46564Q219.64583 308.825 220.8802 308.825Q222.11458 308.825 222.83333 309.5125Q223.55208 310.2 223.55208 311.21564Q223.55208 311.73126 223.33333 312.23126Q223.1302 312.71564 222.6302 313.27814Q222.14583 313.825 221.02083 314.77814Q220.0677 315.575 219.78645 315.8719Q219.52083 316.15314 219.34895 316.4344L223.5677 316.4344ZM225.02083 313.21564Q225.02083 311.6844 225.33333 310.7625Q225.64583 309.825 226.2552 309.325Q226.8802 308.825 227.8177 308.825Q228.5052 308.825 229.02083 309.10626Q229.55208 309.3875 229.89583 309.91876Q230.23958 310.4344 230.42708 311.1844Q230.61458 311.9344 230.61458 313.21564Q230.61458 314.73126 230.30208 315.65314Q230.0052 316.575 229.3802 317.09064Q228.77083 317.59064 227.8177 317.59064Q226.58333 317.59064 225.86458 316.7Q225.02083 315.6375 225.02083 313.21564ZM226.09895 313.21564Q226.09895 315.325 226.59895 316.02814Q227.09895 316.73126 227.8177 316.73126Q228.55208 316.73126 229.03645 316.02814Q229.53645 315.325 229.53645 313.21564Q229.53645 311.09064 229.03645 310.40314Q228.55208 309.7 227.80208 309.7Q227.08333 309.7 226.64583 310.3094Q226.09895 311.09064 226.09895 313.21564Z" fill-rule="nonzero"/><path fill="#000000" d="M265.5594 316.4344L265.5594 317.45L259.8719 317.45Q259.8719 317.075 259.9969 316.71564Q260.21564 316.1375 260.6844 315.575Q261.16876 315.0125 262.075 314.27814Q263.48126 313.1219 263.96564 312.45Q264.46564 311.77814 264.46564 311.1844Q264.46564 310.5594 264.0125 310.1375Q263.5594 309.7 262.84064 309.7Q262.075 309.7 261.6219 310.15314Q261.16876 310.60626 261.15314 311.41876L260.075 311.3094Q260.1844 310.09064 260.90314 309.46564Q261.6375 308.825 262.8719 308.825Q264.10626 308.825 264.825 309.5125Q265.54376 310.2 265.54376 311.21564Q265.54376 311.73126 265.325 312.23126Q265.1219 312.71564 264.6219 313.27814Q264.1375 313.825 263.0125 314.77814Q262.0594 315.575 261.77814 315.8719Q261.5125 316.15314 261.34064 316.4344L265.5594 316.4344ZM267.0125 315.2L268.1219 315.10626Q268.2469 315.91876 268.6844 316.325Q269.1375 316.73126 269.77814 316.73126Q270.52814 316.73126 271.0594 316.15314Q271.59064 315.575 271.59064 314.6375Q271.59064 313.73126 271.075 313.21564Q270.575 312.6844 269.7469 312.6844Q269.2469 312.6844 268.825 312.91876Q268.41876 313.15314 268.1844 313.5125L267.2 313.3875L268.02814 308.98126L272.3094 308.98126L272.3094 309.98126L268.8719 309.98126L268.41876 312.29376Q269.1844 311.7469 270.02814 311.7469Q271.15314 311.7469 271.91876 312.52814Q272.7 313.3094 272.7 314.54376Q272.7 315.7 272.02814 316.5594Q271.2 317.59064 269.77814 317.59064Q268.60626 317.59064 267.85626 316.9344Q267.1219 316.27814 267.0125 315.2Z" fill-rule="nonzero"/><path fill="#000000" d="M302.00418 315.1844L303.06668 315.04376Q303.23856 315.9344 303.67606 316.34064Q304.11356 316.73126 304.73856 316.73126Q305.48856 316.73126 306.00418 316.21564Q306.5198 315.7 306.5198 314.9344Q306.5198 314.21564 306.03543 313.7469Q305.56668 313.2625 304.8323 313.2625Q304.53543 313.2625 304.0823 313.3875L304.2073 312.45Q304.31668 312.46564 304.37918 312.46564Q305.05106 312.46564 305.5823 312.1219Q306.12918 311.7625 306.12918 311.02814Q306.12918 310.45 305.73856 310.075Q305.34793 309.6844 304.72293 309.6844Q304.11356 309.6844 303.69168 310.075Q303.28543 310.46564 303.17606 311.23126L302.11356 311.04376Q302.30106 309.9969 302.98856 309.41876Q303.67606 308.825 304.69168 308.825Q305.3948 308.825 305.98856 309.1375Q306.5823 309.4344 306.8948 309.95Q307.2073 310.46564 307.2073 311.0594Q307.2073 311.60626 306.91043 312.075Q306.61356 312.52814 306.03543 312.79376Q306.78543 312.96564 307.2073 313.52814Q307.62918 314.075 307.62918 314.91876Q307.62918 316.04376 306.80106 316.825Q305.98856 317.60626 304.73856 317.60626Q303.61356 317.60626 302.86356 316.9344Q302.11356 316.2469 302.00418 315.1844ZM309.00418 313.21564Q309.00418 311.6844 309.31668 310.7625Q309.62918 309.825 310.23856 309.325Q310.86356 308.825 311.80106 308.825Q312.48856 308.825 313.00418 309.10626Q313.53543 309.3875 313.87918 309.91876Q314.22293 310.4344 314.41043 311.1844Q314.59793 311.9344 314.59793 313.21564Q314.59793 314.73126 314.28543 315.65314Q313.98856 316.575 313.36356 317.09064Q312.75418 317.59064 311.80106 317.59064Q310.56668 317.59064 309.84793 316.7Q309.00418 315.6375 309.00418 313.21564ZM310.0823 313.21564Q310.0823 315.325 310.5823 316.02814Q311.0823 316.73126 311.80106 316.73126Q312.53543 316.73126 313.0198 316.02814Q313.5198 315.325 313.5198 313.21564Q313.5198 311.09064 313.0198 310.40314Q312.53543 309.7 311.78543 309.7Q311.06668 309.7 310.62918 310.3094Q310.0823 311.09064 310.0823 313.21564Z" fill-rule="nonzero"/><path fill="#000000" d="M343.99582 315.1844L345.05832 315.04376Q345.2302 315.9344 345.6677 316.34064Q346.1052 316.73126 346.7302 316.73126Q347.4802 316.73126 347.99582 316.21564Q348.51144 315.7 348.51144 314.9344Q348.51144 314.21564 348.02707 313.7469Q347.55832 313.2625 346.82394 313.2625Q346.52707 313.2625 346.07394 313.3875L346.19894 312.45Q346.30832 312.46564 346.37082 312.46564Q347.0427 312.46564 347.57394 312.1219Q348.12082 311.7625 348.12082 311.02814Q348.12082 310.45 347.7302 310.075Q347.33957 309.6844 346.71457 309.6844Q346.1052 309.6844 345.68332 310.075Q345.27707 310.46564 345.1677 311.23126L344.1052 311.04376Q344.2927 309.9969 344.9802 309.41876Q345.6677 308.825 346.68332 308.825Q347.38644 308.825 347.9802 309.1375Q348.57394 309.4344 348.88644 309.95Q349.19894 310.46564 349.19894 311.0594Q349.19894 311.60626 348.90207 312.075Q348.6052 312.52814 348.02707 312.79376Q348.77707 312.96564 349.19894 313.52814Q349.62082 314.075 349.62082 314.91876Q349.62082 316.04376 348.7927 316.825Q347.9802 317.60626 346.7302 317.60626Q345.6052 317.60626 344.8552 316.9344Q344.1052 316.2469 343.99582 315.1844ZM350.99582 315.1844L352.05832 315.04376Q352.2302 315.9344 352.6677 316.34064Q353.1052 316.73126 353.7302 316.73126Q354.4802 316.73126 354.99582 316.21564Q355.51144 315.7 355.51144 314.9344Q355.51144 314.21564 355.02707 313.7469Q354.55832 313.2625 353.82394 313.2625Q353.52707 313.2625 353.07394 313.3875L353.19894 312.45Q353.30832 312.46564 353.37082 312.46564Q354.0427 312.46564 354.57394 312.1219Q355.12082 311.7625 355.12082 311.02814Q355.12082 310.45 354.7302 310.075Q354.33957 309.6844 353.71457 309.6844Q353.1052 309.6844 352.68332 310.075Q352.27707 310.46564 352.1677 311.23126L351.1052 311.04376Q351.2927 309.9969 351.9802 309.41876Q352.6677 308.825 353.68332 308.825Q354.38644 308.825 354.9802 309.1375Q355.57394 309.4344 355.88644 309.95Q356.19894 310.46564 356.19894 311.0594Q356.19894 311.60626 355.90207 312.075Q355.6052 312.52814 355.02707 312.79376Q355.77707 312.96564 356.19894 313.52814Q356.62082 314.075 356.62082 314.91876Q356.62082 316.04376 355.7927 316.825Q354.9802 317.60626 353.7302 317.60626Q352.6052 317.60626 351.8552 316.9344Q351.1052 316.2469 350.99582 315.1844Z" fill-rule="nonzero"/><path fill="#000000" d="M385.9875 315.1844L387.05 315.04376Q387.22186 315.9344 387.65936 316.34064Q388.09686 316.73126 388.72186 316.73126Q389.47186 316.73126 389.9875 316.21564Q390.5031 315.7 390.5031 314.9344Q390.5031 314.21564 390.01874 313.7469Q389.55 313.2625 388.8156 313.2625Q388.51874 313.2625 388.0656 313.3875L388.1906 312.45Q388.3 312.46564 388.3625 312.46564Q389.03436 312.46564 389.5656 312.1219Q390.1125 311.7625 390.1125 311.02814Q390.1125 310.45 389.72186 310.075Q389.33124 309.6844 388.70624 309.6844Q388.09686 309.6844 387.675 310.075Q387.26874 310.46564 387.15936 311.23126L386.09686 311.04376Q386.28436 309.9969 386.97186 309.41876Q387.65936 308.825 388.675 308.825Q389.3781 308.825 389.97186 309.1375Q390.5656 309.4344 390.8781 309.95Q391.1906 310.46564 391.1906 311.0594Q391.1906 311.60626 390.89374 312.075Q390.59686 312.52814 390.01874 312.79376Q390.76874 312.96564 391.1906 313.52814Q391.6125 314.075 391.6125 314.91876Q391.6125 316.04376 390.78436 316.825Q389.97186 317.60626 388.72186 317.60626Q387.59686 317.60626 386.84686 316.9344Q386.09686 316.2469 385.9875 315.1844ZM392.9875 315.2L394.09686 315.10626Q394.22186 315.91876 394.65936 316.325Q395.1125 316.73126 395.7531 316.73126Q396.5031 316.73126 397.03436 316.15314Q397.5656 315.575 397.5656 314.6375Q397.5656 313.73126 397.05 313.21564Q396.55 312.6844 395.72186 312.6844Q395.22186 312.6844 394.8 312.91876Q394.39374 313.15314 394.15936 313.5125L393.175 313.3875L394.0031 308.98126L398.28436 308.98126L398.28436 309.98126L394.84686 309.98126L394.39374 312.29376Q395.15936 311.7469 396.0031 311.7469Q397.1281 311.7469 397.89374 312.52814Q398.675 313.3094 398.675 314.54376Q398.675 315.7 398.0031 316.5594Q397.175 317.59064 395.7531 317.59064Q394.58124 317.59064 393.83124 316.9344Q393.09686 316.27814 392.9875 315.2Z" fill-rule="nonzero"/><path fill="#000000" d="M431.35416 317.45L431.35416 315.3875L427.6354 315.3875L427.6354 314.41876L431.55728 308.85626L432.41666 308.85626L432.41666 314.41876L433.5729 314.41876L433.5729 315.3875L432.41666 315.3875L432.41666 317.45L431.35416 317.45ZM431.35416 314.41876L431.35416 310.5594L428.66666 314.41876L431.35416 314.41876ZM434.97916 313.21564Q434.97916 311.6844 435.29166 310.7625Q435.60416 309.825 436.21353 309.325Q436.83853 308.825 437.77603 308.825Q438.46353 308.825 438.97916 309.10626Q439.5104 309.3875 439.85416 309.91876Q440.1979 310.4344 440.3854 311.1844Q440.5729 311.9344 440.5729 313.21564Q440.5729 314.73126 440.2604 315.65314Q439.96353 316.575 439.33853 317.09064Q438.72916 317.59064 437.77603 317.59064Q436.54166 317.59064 435.8229 316.7Q434.97916 315.6375 434.97916 313.21564ZM436.05728 313.21564Q436.05728 315.325 436.55728 316.02814Q437.05728 316.73126 437.77603 316.73126Q438.5104 316.73126 438.99478 316.02814Q439.49478 315.325 439.49478 313.21564Q439.49478 311.09064 438.99478 310.40314Q438.5104 309.7 437.7604 309.7Q437.04166 309.7 436.60416 310.3094Q436.05728 311.09064 436.05728 313.21564Z" fill-rule="nonzero"/><path fill="#000000" d="M473.34583 317.45L473.34583 315.3875L469.62708 315.3875L469.62708 314.41876L473.54895 308.85626L474.40833 308.85626L474.40833 314.41876L475.56458 314.41876L475.56458 315.3875L474.40833 315.3875L474.40833 317.45L473.34583 317.45ZM473.34583 314.41876L473.34583 310.5594L470.65833 314.41876L473.34583 314.41876ZM482.5177 316.4344L482.5177 317.45L476.8302 317.45Q476.8302 317.075 476.9552 316.71564Q477.17395 316.1375 477.6427 315.575Q478.12708 315.0125 479.03333 314.27814Q480.43958 313.1219 480.92395 312.45Q481.42395 311.77814 481.42395 311.1844Q481.42395 310.5594 480.97083 310.1375Q480.5177 309.7 479.79895 309.7Q479.03333 309.7 478.5802 310.15314Q478.12708 310.60626 478.11145 311.41876L477.03333 311.3094Q477.1427 310.09064 477.86145 309.46564Q478.59583 308.825 479.8302 308.825Q481.06458 308.825 481.78333 309.5125Q482.50208 310.2 482.50208 311.21564Q482.50208 311.73126 482.28333 312.23126Q482.0802 312.71564 481.5802 313.27814Q481.09583 313.825 479.97083 314.77814Q479.0177 315.575 478.73645 315.8719Q478.47083 316.15314 478.29895 316.4344L482.5177 316.4344Z" fill-rule="nonzero"/><path fill="#000000" d="M511.9625 315.2L513.0719 315.10626Q513.1969 315.91876 513.6344 316.325Q514.0875 316.73126 514.72815 316.73126Q515.47815 316.73126 516.0094 316.15314Q516.54065 315.575 516.54065 314.6375Q516.54065 313.73126 516.025 313.21564Q515.525 312.6844 514.6969 312.6844Q514.1969 312.6844 513.775 312.91876Q513.3688 313.15314 513.1344 313.5125L512.15 313.3875L512.97815 308.98126L517.2594 308.98126L517.2594 309.98126L513.8219 309.98126L513.3688 312.29376Q514.1344 311.7469 514.97815 311.7469Q516.10315 311.7469 516.8688 312.52814Q517.65 313.3094 517.65 314.54376Q517.65 315.7 516.97815 316.5594Q516.15 317.59064 514.72815 317.59064Q513.5563 317.59064 512.8063 316.9344Q512.0719 316.27814 511.9625 315.2ZM518.9625 313.21564Q518.9625 311.6844 519.275 310.7625Q519.5875 309.825 520.1969 309.325Q520.8219 308.825 521.7594 308.825Q522.4469 308.825 522.9625 309.10626Q523.4938 309.3875 523.8375 309.91876Q524.1813 310.4344 524.3688 311.1844Q524.5563 311.9344 524.5563 313.21564Q524.5563 314.73126 524.2438 315.65314Q523.9469 316.575 523.3219 317.09064Q522.7125 317.59064 521.7594 317.59064Q520.525 317.59064 519.8063 316.7Q518.9625 315.6375 518.9625 313.21564ZM520.04065 313.21564Q520.04065 315.325 520.54065 316.02814Q521.04065 316.73126 521.7594 316.73126Q522.4938 316.73126 522.97815 316.02814Q523.47815 315.325 523.47815 313.21564Q523.47815 311.09064 522.97815 310.40314Q522.4938 309.7 521.7438 309.7Q521.025 309.7 520.5875 310.3094Q520.04065 311.09064 520.04065 313.21564Z" fill-rule="nonzero"/><path fill="#4285f4" d="M241.5 56.916668C241.5 56.364384 241.94771 55.916668 242.5 55.916668L252.5 55.916668C253.05229 55.916668 253.5 56.364384 253.5 56.916668L253.5 66.916664C253.5 67.46895 253.05229 67.916664 252.5 67.916664L242.5 67.916664C241.94771 67.916664 241.5 67.46895 241.5 66.916664Z" fill-rule="nonzero"/><path fill="#1a1a1a" d="M262.375 65.916664L262.375 57.322914L263.51562 57.322914L263.51562 64.90104L267.75 64.90104L267.75 65.916664L262.375 65.916664ZM268.90625 62.80729Q268.90625 61.072914 269.85938 60.24479Q270.65625 59.55729 271.8125 59.55729Q273.09375 59.55729 273.90625 60.40104Q274.73438 61.229164 274.73438 62.71354Q274.73438 63.916664 274.375 64.604164Q274.01562 65.291664 273.3125 65.68229Q272.625 66.05729 271.8125 66.05729Q270.51562 66.05729 269.70312 65.229164Q268.90625 64.385414 268.90625 62.80729ZM269.98438 62.80729Q269.98438 63.99479 270.5 64.58854Q271.03125 65.18229 271.8125 65.18229Q272.60938 65.18229 273.125 64.58854Q273.64062 63.99479 273.64062 62.77604Q273.64062 61.61979 273.10938 61.02604Q272.59375 60.43229 271.8125 60.43229Q271.03125 60.43229 270.5 61.02604Q269.98438 61.604164 269.98438 62.80729ZM277.4375 65.916664L275.53125 59.697914L276.625 59.697914L277.60938 63.291664L277.98438 64.61979Q278.01562 64.52604 278.3125 63.33854L279.29688 59.697914L280.375 59.697914L281.3125 63.30729L281.625 64.49479L281.98438 63.291664L283.04688 59.697914L284.07812 59.697914L282.125 65.916664L281.03125 65.916664L280.04688 62.18229L279.79688 61.135414L278.54688 65.916664L277.4375 65.916664Z" fill-rule="nonzero"/><path fill="#ea4335" d="M300.5 56.916668C300.5 56.364384 300.94772 55.916668 301.5 55.916668L311.5 55.916668C312.05228 55.916668 312.5 56.364384 312.5 56.916668L312.5 66.916664C312.5 67.46895 312.05228 67.916664 311.5 67.916664L301.5 67.916664C300.94772 67.916664 300.5 67.46895 300.5 66.916664Z" fill-rule="nonzero"/><path fill="#1a1a1a" d="M327.5625 62.90104L328.6875 63.197914Q328.32812 64.58854 327.40625 65.322914Q326.48438 66.05729 325.14062 66.05729Q323.75 66.05729 322.875 65.49479Q322.0 64.93229 321.54688 63.86979Q321.09375 62.791664 321.09375 61.55729Q321.09375 60.21354 321.60938 59.21354Q322.125 58.21354 323.0625 57.697914Q324.01562 57.18229 325.15625 57.18229Q326.4375 57.18229 327.3125 57.83854Q328.20312 58.49479 328.54688 59.68229L327.42188 59.947914Q327.125 59.010414 326.54688 58.58854Q325.98438 58.15104 325.125 58.15104Q324.14062 58.15104 323.46875 58.635414Q322.8125 59.104164 322.53125 59.90104Q322.26562 60.697914 322.26562 61.55729Q322.26562 62.65104 322.57812 63.46354Q322.90625 64.27604 323.57812 64.68229Q324.25 65.08854 325.04688 65.08854Q326.0 65.08854 326.65625 64.541664Q327.32812 63.99479 327.5625 62.90104ZM330.28125 65.916664L330.28125 59.697914L331.23438 59.697914L331.23438 60.635414Q331.59375 59.979164 331.89062 59.77604Q332.20312 59.55729 332.57812 59.55729Q333.10938 59.55729 333.65625 59.885414L333.29688 60.86979Q332.90625 60.635414 332.53125 60.635414Q332.17188 60.635414 331.89062 60.854164Q331.625 61.05729 331.51562 61.43229Q331.32812 61.99479 331.32812 62.65104L331.32812 65.916664L330.28125 65.916664ZM334.29688 58.541664L334.29688 57.322914L335.35938 57.322914L335.35938 58.541664L334.29688 58.541664ZM334.29688 65.916664L334.29688 59.697914L335.35938 59.697914L335.35938 65.916664L334.29688 65.916664ZM339.59375 64.979164L339.75 65.90104Q339.29688 65.99479 338.95312 65.99479Q338.375 65.99479 338.0625 65.822914Q337.75 65.635414 337.60938 65.33854Q337.48438 65.041664 337.48438 64.08854L337.48438 60.510414L336.71875 60.510414L336.71875 59.697914L337.48438 59.697914L337.48438 58.15104L338.53125 57.52604L338.53125 59.697914L339.59375 59.697914L339.59375 60.510414L338.53125 60.510414L338.53125 64.15104Q338.53125 64.604164 338.57812 64.729164Q338.64062 64.854164 338.76562 64.93229Q338.89062 65.010414 339.125 65.010414Q339.3125 65.010414 339.59375 64.979164ZM340.29688 58.541664L340.29688 57.322914L341.35938 57.322914L341.35938 58.541664L340.29688 58.541664ZM340.29688 65.916664L340.29688 59.697914L341.35938 59.697914L341.35938 65.916664L340.29688 65.916664ZM347.35938 63.635414L348.39062 63.77604Q348.21875 64.83854 347.51562 65.447914Q346.8125 66.05729 345.79688 66.05729Q344.51562 66.05729 343.73438 65.229164Q342.96875 64.385414 342.96875 62.822914Q342.96875 61.822914 343.29688 61.072914Q343.64062 60.30729 344.3125 59.93229Q345.0 59.55729 345.8125 59.55729Q346.8125 59.55729 347.45312 60.072914Q348.10938 60.572914 348.29688 61.52604L347.26562 61.68229Q347.125 61.05729 346.75 60.74479Q346.375 60.416664 345.84375 60.416664Q345.04688 60.416664 344.54688 60.99479Q344.04688 61.55729 344.04688 62.791664Q344.04688 64.05729 344.53125 64.61979Q345.01562 65.18229 345.78125 65.18229Q346.40625 65.18229 346.8125 64.80729Q347.23438 64.43229 347.35938 63.635414ZM353.35938 65.15104Q352.76562 65.65104 352.21875 65.854164Q351.6875 66.05729 351.0625 66.05729Q350.03125 66.05729 349.48438 65.55729Q348.9375 65.05729 348.9375 64.27604Q348.9375 63.822914 349.14062 63.447914Q349.34375 63.05729 349.6875 62.83854Q350.03125 62.604164 350.45312 62.49479Q350.75 62.40104 351.39062 62.322914Q352.65625 62.18229 353.26562 61.96354Q353.26562 61.74479 353.26562 61.697914Q353.26562 61.041664 352.96875 60.77604Q352.5625 60.43229 351.76562 60.43229Q351.03125 60.43229 350.67188 60.697914Q350.3125 60.947914 350.14062 61.604164L349.10938 61.46354Q349.25 60.80729 349.57812 60.40104Q349.90625 59.99479 350.51562 59.77604Q351.125 59.55729 351.92188 59.55729Q352.71875 59.55729 353.21875 59.74479Q353.71875 59.93229 353.95312 60.21354Q354.1875 60.49479 354.28125 60.93229Q354.32812 61.197914 354.32812 61.90104L354.32812 63.30729Q354.32812 64.77604 354.39062 65.166664Q354.46875 65.55729 354.67188 65.916664L353.5625 65.916664Q353.40625 65.58854 353.35938 65.15104ZM353.26562 62.791664Q352.6875 63.02604 351.54688 63.197914Q350.89062 63.291664 350.625 63.416664Q350.35938 63.52604 350.20312 63.74479Q350.0625 63.96354 350.0625 64.24479Q350.0625 64.666664 350.375 64.947914Q350.70312 65.229164 351.3125 65.229164Q351.92188 65.229164 352.39062 64.96354Q352.875 64.697914 353.09375 64.229164Q353.26562 63.86979 353.26562 63.18229L353.26562 62.791664ZM356.26562 65.916664L356.26562 57.322914L357.32812 57.322914L357.32812 65.916664L356.26562 65.916664Z" fill-rule="nonzero"/><path fill="#757575" d="M20.01875 37.55L20.01875 23.2375L21.909374 23.2375L21.909374 35.8625L28.95625 35.8625L28.95625 37.55L20.01875 37.55ZM30.221874 32.3625Q30.221874 29.4875 31.815624 28.096874Q33.159374 26.940624 35.08125 26.940624Q37.221874 26.940624 38.565624 28.346874Q39.925 29.753124 39.925 32.221874Q39.925 34.221874 39.33125 35.378124Q38.7375 36.51875 37.58125 37.159374Q36.440624 37.784374 35.08125 37.784374Q32.89375 37.784374 31.55 36.39375Q30.221874 34.9875 30.221874 32.3625ZM32.01875 32.3625Q32.01875 34.3625 32.878124 35.346874Q33.753124 36.33125 35.08125 36.33125Q36.39375 36.33125 37.253124 35.346874Q38.128124 34.346874 38.128124 32.3Q38.128124 30.378124 37.253124 29.39375Q36.378124 28.39375 35.08125 28.39375Q33.753124 28.39375 32.878124 29.39375Q32.01875 30.378124 32.01875 32.3625ZM43.784374 37.55L40.6125 27.175L42.425 27.175L44.08125 33.159374L44.690624 35.39375Q44.7375 35.221874 45.221874 33.253124L46.878124 27.175L48.690624 27.175L50.2375 33.190624L50.753124 35.175L51.346874 33.175L53.128124 27.175L54.83125 27.175L51.596874 37.55L49.76875 37.55L48.1125 31.33125L47.721874 29.565624L45.6125 37.55L43.784374 37.55ZM62.8625 41.51875L62.8625 27.175L64.47188 27.175L64.47188 28.51875Q65.03438 27.7375 65.7375 27.346874Q66.45625 26.940624 67.47188 26.940624Q68.8 26.940624 69.81563 27.628124Q70.83125 28.315624 71.34688 29.565624Q71.87813 30.8 71.87813 32.284374Q71.87813 33.878124 71.3 35.159374Q70.7375 36.425 69.64375 37.1125Q68.55 37.784374 67.34688 37.784374Q66.47188 37.784374 65.76875 37.409374Q65.08125 37.034374 64.62813 36.471874L64.62813 41.51875L62.8625 41.51875ZM64.45625 32.425Q64.45625 34.425 65.26875 35.378124Q66.08125 36.33125 67.2375 36.33125Q68.40938 36.33125 69.2375 35.346874Q70.08125 34.3625 70.08125 32.26875Q70.08125 30.3 69.25313 29.315624Q68.44063 28.315624 67.31563 28.315624Q66.19063 28.315624 65.31563 29.378124Q64.45625 30.425 64.45625 32.425ZM80.64375 36.26875Q79.65938 37.096874 78.75313 37.440624Q77.84688 37.784374 76.81563 37.784374Q75.1125 37.784374 74.19063 36.95625Q73.26875 36.1125 73.26875 34.815624Q73.26875 34.05 73.6125 33.425Q73.97188 32.8 74.53438 32.425Q75.09688 32.034374 75.8 31.83125Q76.31563 31.70625 77.3625 31.565624Q79.4875 31.315624 80.4875 30.971874Q80.50313 30.6125 80.50313 30.503124Q80.50313 29.440624 80.00313 28.9875Q79.33125 28.39375 78.00313 28.39375Q76.75313 28.39375 76.15938 28.83125Q75.58125 29.26875 75.3 30.378124L73.58125 30.14375Q73.81563 29.034374 74.34688 28.3625Q74.87813 27.675 75.89375 27.315624Q76.90938 26.940624 78.25313 26.940624Q79.58125 26.940624 80.40938 27.253124Q81.2375 27.565624 81.62813 28.05Q82.01875 28.51875 82.175 29.2375Q82.26875 29.690624 82.26875 30.8625L82.26875 33.20625Q82.26875 35.659374 82.37813 36.315624Q82.4875 36.95625 82.83125 37.55L80.9875 37.55Q80.72188 37.003124 80.64375 36.26875ZM80.4875 32.346874Q79.53438 32.7375 77.6125 33.003124Q76.53438 33.159374 76.08125 33.3625Q75.64375 33.55 75.39375 33.925Q75.14375 34.3 75.14375 34.76875Q75.14375 35.471874 75.675 35.940624Q76.20625 36.409374 77.2375 36.409374Q78.25313 36.409374 79.03438 35.971874Q79.83125 35.51875 80.20625 34.753124Q80.4875 34.14375 80.4875 32.9875L80.4875 32.346874ZM84.84688 37.55L84.84688 27.175L86.425 27.175L86.425 28.753124Q87.03438 27.64375 87.55 27.3Q88.06563 26.940624 88.675 26.940624Q89.56563 26.940624 90.4875 27.503124L89.87813 29.14375Q89.2375 28.753124 88.59688 28.753124Q88.01875 28.753124 87.55 29.1125Q87.09688 29.45625 86.89375 30.065624Q86.6125 31.003124 86.6125 32.1125L86.6125 37.55L84.84688 37.55ZM95.70625 35.971874L95.95625 37.534374Q95.22188 37.690624 94.62813 37.690624Q93.675 37.690624 93.14375 37.39375Q92.62813 37.08125 92.40938 36.596874Q92.19063 36.096874 92.19063 34.51875L92.19063 28.55L90.90938 28.55L90.90938 27.175L92.19063 27.175L92.19063 24.6125L93.94063 23.55L93.94063 27.175L95.70625 27.175L95.70625 28.55L93.94063 28.55L93.94063 34.6125Q93.94063 35.3625 94.03438 35.58125Q94.12813 35.784374 94.33125 35.925Q94.55 36.05 94.94063 36.05Q95.22188 36.05 95.70625 35.971874ZM97.87813 25.253124L97.87813 23.2375L99.64375 23.2375L99.64375 25.253124L97.87813 25.253124ZM97.87813 37.55L97.87813 27.175L99.64375 27.175L99.64375 37.55L97.87813 37.55ZM108.64375 33.753124L110.3625 33.971874Q110.08125 35.76875 108.90938 36.784374Q107.75313 37.784374 106.05 37.784374Q103.925 37.784374 102.62813 36.39375Q101.33125 35.003124 101.33125 32.409374Q101.33125 30.721874 101.87813 29.471874Q102.44063 28.20625 103.58125 27.58125Q104.72188 26.940624 106.06563 26.940624Q107.75313 26.940624 108.81563 27.8Q109.89375 28.659374 110.20625 30.221874L108.4875 30.4875Q108.25313 29.440624 107.62813 28.925Q107.00313 28.39375 106.12813 28.39375Q104.8 28.39375 103.97188 29.346874Q103.14375 30.3 103.14375 32.346874Q103.14375 34.440624 103.94063 35.39375Q104.7375 36.33125 106.03438 36.33125Q107.06563 36.33125 107.75313 35.70625Q108.45625 35.065624 108.64375 33.753124ZM111.87813 25.253124L111.87813 23.2375L113.64375 23.2375L113.64375 25.253124L111.87813 25.253124ZM111.87813 37.55L111.87813 27.175L113.64375 27.175L113.64375 37.55L111.87813 37.55ZM115.8625 41.51875L115.8625 27.175L117.47188 27.175L117.47188 28.51875Q118.03438 27.7375 118.7375 27.346874Q119.45625 26.940624 120.47188 26.940624Q121.8 26.940624 122.81563 27.628124Q123.83125 28.315624 124.34688 29.565624Q124.87813 30.8 124.87813 32.284374Q124.87813 33.878124 124.3 35.159374Q123.7375 36.425 122.64375 37.1125Q121.55 37.784374 120.34688 37.784374Q119.47188 37.784374 118.76875 37.409374Q118.08125 37.034374 117.62813 36.471874L117.62813 41.51875L115.8625 41.51875ZM117.45625 32.425Q117.45625 34.425 118.26875 35.378124Q119.08125 36.33125 120.2375 36.33125Q121.40938 36.33125 122.2375 35.346874Q123.08125 34.3625 123.08125 32.26875Q123.08125 30.3 122.25313 29.315624Q121.44063 28.315624 120.31563 28.315624Q119.19063 28.315624 118.31563 29.378124Q117.45625 30.425 117.45625 32.425ZM133.64375 36.26875Q132.65938 37.096874 131.75313 37.440624Q130.84688 37.784374 129.81563 37.784374Q128.1125 37.784374 127.19063 36.95625Q126.26875 36.1125 126.26875 34.815624Q126.26875 34.05 126.6125 33.425Q126.97188 32.8 127.53438 32.425Q128.09688 32.034374 128.8 31.83125Q129.31563 31.70625 130.3625 31.565624Q132.4875 31.315624 133.4875 30.971874Q133.50313 30.6125 133.50313 30.503124Q133.50313 29.440624 133.00313 28.9875Q132.33125 28.39375 131.00313 28.39375Q129.75313 28.39375 129.15938 28.83125Q128.58125 29.26875 128.3 30.378124L126.58125 30.14375Q126.81563 29.034374 127.34688 28.3625Q127.87813 27.675 128.89375 27.315624Q129.90938 26.940624 131.25313 26.940624Q132.58125 26.940624 133.40938 27.253124Q134.2375 27.565624 134.62813 28.05Q135.01875 28.51875 135.175 29.2375Q135.26875 29.690624 135.26875 30.8625L135.26875 33.20625Q135.26875 35.659374 135.37813 36.315624Q135.4875 36.95625 135.83125 37.55L133.9875 37.55Q133.72188 37.003124 133.64375 36.26875ZM133.4875 32.346874Q132.53438 32.7375 130.6125 33.003124Q129.53438 33.159374 129.08125 33.3625Q128.64375 33.55 128.39375 33.925Q128.14375 34.3 128.14375 34.76875Q128.14375 35.471874 128.675 35.940624Q129.20625 36.409374 130.2375 36.409374Q131.25313 36.409374 132.03438 35.971874Q132.83125 35.51875 133.20625 34.753124Q133.4875 34.14375 133.4875 32.9875L133.4875 32.346874ZM141.70625 35.971874L141.95625 37.534374Q141.22188 37.690624 140.62813 37.690624Q139.675 37.690624 139.14375 37.39375Q138.62813 37.08125 138.40938 36.596874Q138.19063 36.096874 138.19063 34.51875L138.19063 28.55L136.90938 28.55L136.90938 27.175L138.19063 27.175L138.19063 24.6125L139.94063 23.55L139.94063 27.175L141.70625 27.175L141.70625 28.55L139.94063 28.55L139.94063 34.6125Q139.94063 35.3625 140.03438 35.58125Q140.12813 35.784374 140.33125 35.925Q140.55 36.05 140.94063 36.05Q141.22188 36.05 141.70625 35.971874ZM143.87813 25.253124L143.87813 23.2375L145.64375 23.2375L145.64375 25.253124L143.87813 25.253124ZM143.87813 37.55L143.87813 27.175L145.64375 27.175L145.64375 37.55L143.87813 37.55ZM147.22188 32.3625Q147.22188 29.4875 148.81563 28.096874Q150.15938 26.940624 152.08125 26.940624Q154.22188 26.940624 155.56563 28.346874Q156.925 29.753124 156.925 32.221874Q156.925 34.221874 156.33125 35.378124Q155.7375 36.51875 154.58125 37.159374Q153.44063 37.784374 152.08125 37.784374Q149.89375 37.784374 148.55 36.39375Q147.22188 34.9875 147.22188 32.3625ZM149.01875 32.3625Q149.01875 34.3625 149.87813 35.346874Q150.75313 36.33125 152.08125 36.33125Q153.39375 36.33125 154.25313 35.346874Q155.12813 34.346874 155.12813 32.3Q155.12813 30.378124 154.25313 29.39375Q153.37813 28.39375 152.08125 28.39375Q150.75313 28.39375 149.87813 29.39375Q149.01875 30.378124 149.01875 32.3625ZM158.8625 37.55L158.8625 27.175L160.45625 27.175L160.45625 28.659374Q161.59688 26.940624 163.75313 26.940624Q164.69063 26.940624 165.47188 27.284374Q166.26875 27.6125 166.65938 28.159374Q167.05 28.70625 167.20625 29.45625Q167.3 29.95625 167.3 31.175L167.3 37.55L165.53438 37.55L165.53438 31.2375Q165.53438 30.159374 165.33125 29.628124Q165.12813 29.096874 164.59688 28.784374Q164.08125 28.471874 163.37813 28.471874Q162.25313 28.471874 161.44063 29.190624Q160.62813 29.89375 160.62813 31.878124L160.62813 37.55L158.8625 37.55ZM178.70625 35.971874L178.95625 37.534374Q178.22188 37.690624 177.62813 37.690624Q176.675 37.690624 176.14375 37.39375Q175.62813 37.08125 175.40938 36.596874Q175.19063 36.096874 175.19063 34.51875L175.19063 28.55L173.90938 28.55L173.90938 27.175L175.19063 27.175L175.19063 24.6125L176.94063 23.55L176.94063 27.175L178.70625 27.175L178.70625 28.55L176.94063 28.55L176.94063 34.6125Q176.94063 35.3625 177.03438 35.58125Q177.12813 35.784374 177.33125 35.925Q177.55 36.05 177.94063 36.05Q178.22188 36.05 178.70625 35.971874ZM180.22188 32.3625Q180.22188 29.4875 181.81563 28.096874Q183.15938 26.940624 185.08125 26.940624Q187.22188 26.940624 188.56563 28.346874Q189.925 29.753124 189.925 32.221874Q189.925 34.221874 189.33125 35.378124Q188.7375 36.51875 187.58125 37.159374Q186.44063 37.784374 185.08125 37.784374Q182.89375 37.784374 181.55 36.39375Q180.22188 34.9875 180.22188 32.3625ZM182.01875 32.3625Q182.01875 34.3625 182.87813 35.346874Q183.75313 36.33125 185.08125 36.33125Q186.39375 36.33125 187.25313 35.346874Q188.12813 34.346874 188.12813 32.3Q188.12813 30.378124 187.25313 29.39375Q186.37813 28.39375 185.08125 28.39375Q183.75313 28.39375 182.87813 29.39375Q182.01875 30.378124 182.01875 32.3625ZM191.83125 37.55L191.83125 23.2375L193.58125 23.2375L193.58125 37.55L191.83125 37.55ZM202.97188 34.20625L204.78438 34.440624Q204.3625 36.01875 203.19063 36.909374Q202.03438 37.784374 200.22188 37.784374Q197.95625 37.784374 196.6125 36.39375Q195.28438 34.9875 195.28438 32.45625Q195.28438 29.83125 196.62813 28.39375Q197.97188 26.940624 200.12813 26.940624Q202.20625 26.940624 203.51875 28.3625Q204.84688 29.76875 204.84688 32.346874Q204.84688 32.503124 204.83125 32.815624L197.09688 32.815624Q197.19063 34.51875 198.06563 35.425Q198.94063 36.33125 200.2375 36.33125Q201.20625 36.33125 201.87813 35.83125Q202.56563 35.315624 202.97188 34.20625ZM197.19063 31.3625L202.9875 31.3625Q202.87813 30.065624 202.33125 29.409374Q201.4875 28.39375 200.14375 28.39375Q198.94063 28.39375 198.1125 29.20625Q197.28438 30.003124 197.19063 31.3625ZM206.84688 37.55L206.84688 27.175L208.425 27.175L208.425 28.753124Q209.03438 27.64375 209.55 27.3Q210.06563 26.940624 210.675 26.940624Q211.56563 26.940624 212.4875 27.503124L211.87813 29.14375Q211.2375 28.753124 210.59688 28.753124Q210.01875 28.753124 209.55 29.1125Q209.09688 29.45625 208.89375 30.065624Q208.6125 31.003124 208.6125 32.1125L208.6125 37.55L206.84688 37.55ZM220.64375 36.26875Q219.65938 37.096874 218.75313 37.440624Q217.84688 37.784374 216.81563 37.784374Q215.1125 37.784374 214.19063 36.95625Q213.26875 36.1125 213.26875 34.815624Q213.26875 34.05 213.6125 33.425Q213.97188 32.8 214.53438 32.425Q215.09688 32.034374 215.8 31.83125Q216.31563 31.70625 217.3625 31.565624Q219.4875 31.315624 220.4875 30.971874Q220.50313 30.6125 220.50313 30.503124Q220.50313 29.440624 220.00313 28.9875Q219.33125 28.39375 218.00313 28.39375Q216.75313 28.39375 216.15938 28.83125Q215.58125 29.26875 215.3 30.378124L213.58125 30.14375Q213.81563 29.034374 214.34688 28.3625Q214.87813 27.675 215.89375 27.315624Q216.90938 26.940624 218.25313 26.940624Q219.58125 26.940624 220.40938 27.253124Q221.2375 27.565624 221.62813 28.05Q222.01875 28.51875 222.175 29.2375Q222.26875 29.690624 222.26875 30.8625L222.26875 33.20625Q222.26875 35.659374 222.37813 36.315624Q222.4875 36.95625 222.83125 37.55L220.9875 37.55Q220.72188 37.003124 220.64375 36.26875ZM220.4875 32.346874Q219.53438 32.7375 217.6125 33.003124Q216.53438 33.159374 216.08125 33.3625Q215.64375 33.55 215.39375 33.925Q215.14375 34.3 215.14375 34.76875Q215.14375 35.471874 215.675 35.940624Q216.20625 36.409374 217.2375 36.409374Q218.25313 36.409374 219.03438 35.971874Q219.83125 35.51875 220.20625 34.753124Q220.4875 34.14375 220.4875 32.9875L220.4875 32.346874ZM224.8625 37.55L224.8625 27.175L226.45625 27.175L226.45625 28.659374Q227.59688 26.940624 229.75313 26.940624Q230.69063 26.940624 231.47188 27.284374Q232.26875 27.6125 232.65938 28.159374Q233.05 28.70625 233.20625 29.45625Q233.3 29.95625 233.3 31.175L233.3 37.55L231.53438 37.55L231.53438 31.2375Q231.53438 30.159374 231.33125 29.628124Q231.12813 29.096874 230.59688 28.784374Q230.08125 28.471874 229.37813 28.471874Q228.25313 28.471874 227.44063 29.190624Q226.62813 29.89375 226.62813 31.878124L226.62813 37.55L224.8625 37.55ZM241.64375 33.753124L243.3625 33.971874Q243.08125 35.76875 241.90938 36.784374Q240.75313 37.784374 239.05 37.784374Q236.925 37.784374 235.62813 36.39375Q234.33125 35.003124 234.33125 32.409374Q234.33125 30.721874 234.87813 29.471874Q235.44063 28.20625 236.58125 27.58125Q237.72188 26.940624 239.06563 26.940624Q240.75313 26.940624 241.81563 27.8Q242.89375 28.659374 243.20625 30.221874L241.4875 30.4875Q241.25313 29.440624 240.62813 28.925Q240.00313 28.39375 239.12813 28.39375Q237.8 28.39375 236.97188 29.346874Q236.14375 30.3 236.14375 32.346874Q236.14375 34.440624 236.94063 35.39375Q237.7375 36.33125 239.03438 36.33125Q240.06563 36.33125 240.75313 35.70625Q241.45625 35.065624 241.64375 33.753124ZM251.97188 34.20625L253.78438 34.440624Q253.3625 36.01875 252.19063 36.909374Q251.03438 37.784374 249.22188 37.784374Q246.95625 37.784374 245.6125 36.39375Q244.28438 34.9875 244.28438 32.45625Q244.28438 29.83125 245.62813 28.39375Q246.97188 26.940624 249.12813 26.940624Q251.20625 26.940624 252.51875 28.3625Q253.84688 29.76875 253.84688 32.346874Q253.84688 32.503124 253.83125 32.815624L246.09688 32.815624Q246.19063 34.51875 247.06563 35.425Q247.94063 36.33125 249.2375 36.33125Q250.20625 36.33125 250.87813 35.83125Q251.56563 35.315624 251.97188 34.20625ZM246.19063 31.3625L251.9875 31.3625Q251.87813 30.065624 251.33125 29.409374Q250.4875 28.39375 249.14375 28.39375Q247.94063 28.39375 247.1125 29.20625Q246.28438 30.003124 246.19063 31.3625Z" fill-rule="nonzero"/></svg>