<svg xmlns="http://www.w3.org/2000/svg" xmlns:xlink="http://www.w3.org/1999/xlink" version="1.1" class="marks" width="1027" height="364" viewBox="0 0 1027 364"><rect width="1027" height="364" fill="white"/><g fill="none" stroke-miterlimit="10" transform="translate(39,27)"><g class="mark-group role-frame root" role="graphics-object" aria-roledescription="group mark container"><g transform="translate(0,0)"><path class="background" aria-hidden="true" d="M0.5,0.5h982v300h-982Z" stroke="#ddd"/><g><g class="mark-group role-axis" aria-hidden="true"><g transform="translate(0.5,300.5)"><path class="background" aria-hidden="true" d="M0,0h0v0h0Z" pointer-events="none"/><g><g class="mark-rule role-axis-grid" pointer-events="none"><line transform="translate(0,-300)" x2="0" y2="300" stroke="#ddd" stroke-width="1" opacity="1"/><line transform="translate(49,-300)" x2="0" y2="300" stroke="#ddd" stroke-width="1" opacity="1"/><line transform="translate(98,-300)" x2="0" y2="300" stroke="#ddd" stroke-width="1" opacity="1"/><line transform="translate(147,-300)" x2="0" y2="300" stroke="#ddd" stroke-width="1" opacity="1"/><line transform="translate(196,-300)" x2="0" y2="300" stroke="#ddd" stroke-width="1" opacity="1"/><line transform="translate(246,-300)" x2="0" y2="300" stroke="#ddd" stroke-width="1" opacity="1"/><line transform="translate(295,-300)" x2="0" y2="300" stroke="#ddd" stroke-width="1" opacity="1"/><line transform="translate(344,-300)" x2="0" y2="300" stroke="#ddd" stroke-width="1" opacity="1"/><line transform="translate(393,-300)" x2="0" y2="300" stroke="#ddd" stroke-width="1" opacity="1"/><line transform="translate(442,-300)" x2="0" y2="300" stroke="#ddd" stroke-width="1" opacity="1"/><line transform="translate(491,-300)" x2="0" y2="300" stroke="#ddd" stroke-width="1" opacity="1"/><line transform="translate(540,-300)" x2="0" y2="300" stroke="#ddd" stroke-width="1" opacity="1"/><line transform="translate(589,-300)" x2="0" y2="300" stroke="#ddd" stroke-width="1" opacity="1"/><line transform="translate(638,-300)" x2="0" y2="300" stroke="#ddd" stroke-width="1" opacity="1"/><line transform="translate(687,-300)" x2="0" y2="300" stroke="#ddd" stroke-width="1" opacity="1"/><line transform="translate(737,-300)" x2="0" y2="300" stroke="#ddd" stroke-width="1" opacity="1"/><line transform="translate(786,-300)" x2="0" y2="300" stroke="#ddd" stroke-width="1" opacity="1"/><line transform="translate(835,-300)" x2="0" y2="300" stroke="#ddd" stroke-width="1" opacity="1"/><line transform="translate(884,-300)" x2="0" y2="300" stroke="#ddd" stroke-width="1" opacity="1"/><line transform="translate(933,-300)" x2="0" y2="300" stroke="#ddd" stroke-width="1" opacity="1"/><line transform="translate(982,-300)" x2="0" y2="300" stroke="#ddd" stroke-width="1" opacity="1"/></g></g><path class="foreground" aria-hidden="true" d="" pointer-events="none" display="none"/></g></g><g class="mark-group role-axis" aria-hidden="true"><g transform="translate(0.5,0.5)"><path class="background" aria-hidden="true" d="M0,0h0v0h0Z" pointer-events="none"/><g><g class="mark-rule role-axis-grid" pointer-events="none"><line transform="translate(0,300)" x2="982" y2="0" stroke="#ddd" stroke-width="1" opacity="1"/><line transform="translate(0,275)" x2="982" y2="0" stroke="#ddd" stroke-width="1" opacity="1"/><line transform="translate(0,250)" x2="982" y2="0" stroke="#ddd" stroke-width="1" opacity="1"/><line transform="translate(0,225)" x2="982" y2="0" stroke="#ddd" stroke-width="1" opacity="1"/><line transform="translate(0,200)" x2="982" y2="0" stroke="#ddd" stroke-width="1" opacity="1"/><line transform="translate(0,175)" x2="982" y2="0" stroke="#ddd" stroke-width="1" opacity="1"/><line transform="translate(0,150)" x2="982" y2="0" stroke="#ddd" stroke-width="1" opacity="1"/><line transform="translate(0,125)" x2="982" y2="0" stroke="#ddd" stroke-width="1" opacity="1"/><line transform="translate(0,100)" x2="982" y2="0" stroke="#ddd" stroke-width="1" opacity="1"/><line transform="translate(0,75)" x2="982" y2="0" stroke="#ddd" stroke-width="1" opacity="1"/><line transform="translate(0,50)" x2="982" y2="0" stroke="#ddd" stroke-width="1" opacity="1"/><line transform="translate(0,25)" x2="982" y2="0" stroke="#ddd" stroke-width="1" opacity="1"/><line transform="translate(0,0)" x2="982" y2="0" stroke="#ddd" stroke-width="1" opacity="1"/></g></g><path class="foreground" aria-hidden="true" d="" pointer-events="none" display="none"/></g></g><g class="mark-group role-axis" role="graphics-symbol" aria-roledescription="axis" aria-label="X-axis titled 'Annual emissions budget (% supply)' for a linear scale with values from 0 to 40"><g transform="translate(0.5,300.5)"><path class="background" aria-hidden="true" d="M0,0h0v0h0Z" pointer-events="none"/><g><g class="mark-rule role-axis-tick" pointer-events="none"><line transform="translate(0,0)" x2="0" y2="5" stroke="#888" stroke-width="1" opacity="1"/><line transform="translate(49,0)" x2="0" y2="5" stroke="#888" stroke-width="1" opacity="1"/><line transform="translate(98,0)" x2="0" y2="5" stroke="#888" stroke-width="1" opacity="1"/><line transform="translate(147,0)" x2="0" y2="5" stroke="#888" stroke-width="1" opacity="1"/><line transform="translate(196,0)" x2="0" y2="5" stroke="#888" stroke-width="1" opacity="1"/><line transform="translate(246,0)" x2="0" y2="5" stroke="#888" stroke-width="1" opacity="1"/><line transform="translate(295,0)" x2="0" y2="5" stroke="#888" stroke-width="1" opacity="1"/><line transform="translate(344,0)" x2="0" y2="5" stroke="#888" stroke-width="1" opacity="1"/><line transform="translate(393,0)" x2="0" y2="5" stroke="#888" stroke-width="1" opacity="1"/><line transform="translate(442,0)" x2="0" y2="5" stroke="#888" stroke-width="1" opacity="1"/><line transform="translate(491,0)" x2="0" y2="5" stroke="#888" stroke-width="1" opacity="1"/><line transform="translate(540,0)" x2="0" y2="5" stroke="#888" stroke-width="1" opacity="1"/><line transform="translate(589,0)" x2="0" y2="5" stroke="#888" stroke-width="1" opacity="1"/><line transform="translate(638,0)" x2="0" y2="5" stroke="#888" stroke-width="1" opacity="1"/><line transform="translate(687,0)" x2="0" y2="5" stroke="#888" stroke-width="1" opacity="1"/><line transform="translate(737,0)" x2="0" y2="5" stroke="#888" stroke-width="1" opacity="1"/><line transform="translate(786,0)" x2="0" y2="5" stroke="#888" stroke-width="1" opacity="1"/><line transform="translate(835,0)" x2="0" y2="5" stroke="#888" stroke-width="1" opacity="1"/><line transform="translate(884,0)" x2="0" y2="5" stroke="#888" stroke-width="1" opacity="1"/><line transform="translate(933,0)" x2="0" y2="5" stroke="#888" stroke-width="1" opacity="1"/><line transform="translate(982,0)" x2="0" y2="5" stroke="#888" stroke-width="1" opacity="1"/></g><g class="mark-text role-axis-label" pointer-events="none"><text text-anchor="start" transform="translate(0,15)" font-family="sans-serif" font-size="10px" fill="#000" opacity="1">0</text><text text-anchor="middle" transform="translate(49.1,15)" font-family="sans-serif" font-size="10px" fill="#000" opacity="1">2</text><text text-anchor="middle" transform="translate(98.2,15)" font-family="sans-serif" font-size="10px" fill="#000" opacity="1">4</text><text text-anchor="middle" transform="translate(147.29999999999998,15)" font-family="sans-serif" font-size="10px" fill="#000" opacity="1">6</text><text text-anchor="middle" transform="translate(196.4,15)" font-family="sans-serif" font-size="10px" fill="#000" opacity="1">8</text><text text-anchor="middle" transform="translate(245.5,15)" font-family="sans-serif" font-size="10px" fill="#000" opacity="1">10</text><text text-anchor="middle" transform="translate(294.59999999999997,15)" font-family="sans-serif" font-size="10px" fill="#000" opacity="1">12</text><text text-anchor="middle" transform="translate(343.7,15)" font-family="sans-serif" font-size="10px" fill="#000" opacity="1">14</text><text text-anchor="middle" transform="translate(392.8,15)" font-family="sans-serif" font-size="10px" fill="#000" opacity="1">16</text><text text-anchor="middle" transform="translate(441.90000000000003,15)" font-family="sans-serif" font-size="10px" fill="#000" opacity="1">18</text><text text-anchor="middle" transform="translate(491,15)" font-family="sans-serif" font-size="10px" fill="#000" opacity="1">20</text><text text-anchor="middle" transform="translate(540.1,15)" font-family="sans-serif" font-size="10px" fill="#000" opacity="1">22</text><text text-anchor="middle" transform="translate(589.1999999999999,15)" font-family="sans-serif" font-size="10px" fill="#000" opacity="1">24</text><text text-anchor="middle" transform="translate(638.3000000000001,15)" font-family="sans-serif" font-size="10px" fill="#000" opacity="1">26</text><text text-anchor="middle" transform="translate(687.4,15)" font-family="sans-serif" font-size="10px" fill="#000" opacity="1">28</text><text text-anchor="middle" transform="translate(736.5,15)" font-family="sans-serif" font-size="10px" fill="#000" opacity="1">30</text><text text-anchor="middle" transform="translate(785.6,15)" font-family="sans-serif" font-size="10px" fill="#000" opacity="1">32</text><text text-anchor="middle" transform="translate(834.6999999999999,15)" font-family="sans-serif" font-size="10px" fill="#000" opacity="1">34</text><text text-anchor="middle" transform="translate(883.8000000000001,15)" font-family="sans-serif" font-size="10px" fill="#000" opacity="1">36</text><text text-anchor="middle" transform="translate(932.9,15)" font-family="sans-serif" font-size="10px" fill="#000" opacity="1">38</text><text text-anchor="end" transform="translate(982,15)" font-family="sans-serif" font-size="10px" fill="#000" opacity="1">40</text></g><g class="mark-rule role-axis-domain" pointer-events="none"><line transform="translate(0,0)" x2="982" y2="0" stroke="#888" stroke-width="1" opacity="1"/></g><g class="mark-text role-axis-title" pointer-events="none"><text text-anchor="middle" transform="translate(491,30)" font-family="sans-serif" font-size="11px" font-weight="bold" fill="#000" opacity="1">Annual emissions budget (% supply)</text></g></g><path class="foreground" aria-hidden="true" d="" pointer-events="none" display="none"/></g></g><g class="mark-group role-axis" role="graphics-symbol" aria-roledescription="axis" aria-label="Y-axis titled '# objections' for a linear scale with values from 0 to 24"><g transform="translate(0.5,0.5)"><path class="background" aria-hidden="true" d="M0,0h0v0h0Z" pointer-events="none"/><g><g class="mark-rule role-axis-tick" pointer-events="none"><line transform="translate(0,300)" x2="-5" y2="0" stroke="#888" stroke-width="1" opacity="1"/><line transform="translate(0,275)" x2="-5" y2="0" stroke="#888" stroke-width="1" opacity="1"/><line transform="translate(0,250)" x2="-5" y2="0" stroke="#888" stroke-width="1" opacity="1"/><line transform="translate(0,225)" x2="-5" y2="0" stroke="#888" stroke-width="1" opacity="1"/><line transform="translate(0,200)" x2="-5" y2="0" stroke="#888" stroke-width="1" opacity="1"/><line transform="translate(0,175)" x2="-5" y2="0" stroke="#888" stroke-width="1" opacity="1"/><line transform="translate(0,150)" x2="-5" y2="0" stroke="#888" stroke-width="1" opacity="1"/><line transform="translate(0,125)" x2="-5" y2="0" stroke="#888" stroke-width="1" opacity="1"/><line transform="translate(0,100)" x2="-5" y2="0" stroke="#888" stroke-width="1" opacity="1"/><line transform="translate(0,75)" x2="-5" y2="0" stroke="#888" stroke-width="1" opacity="1"/><line transform="translate(0,50)" x2="-5" y2="0" stroke="#888" stroke-width="1" opacity="1"/><line transform="translate(0,25)" x2="-5" y2="0" stroke="#888" stroke-width="1" opacity="1"/><line transform="translate(0,0)" x2="-5" y2="0" stroke="#888" stroke-width="1" opacity="1"/></g><g class="mark-text role-axis-label" pointer-events="none"><text text-anchor="end" transform="translate(-7,303)" font-family="sans-serif" font-size="10px" fill="#000" opacity="1">0</text><text text-anchor="end" transform="translate(-7,278)" font-family="sans-serif" font-size="10px" fill="#000" opacity="1">2</text><text text-anchor="end" transform="translate(-7,253)" font-family="sans-serif" font-size="10px" fill="#000" opacity="1">4</text><text text-anchor="end" transform="translate(-7,228)" font-family="sans-serif" font-size="10px" fill="#000" opacity="1">6</text><text text-anchor="end" transform="translate(-7,203.00000000000003)" font-family="sans-serif" font-size="10px" fill="#000" opacity="1">8</text><text text-anchor="end" transform="translate(-7,177.99999999999997)" font-family="sans-serif" font-size="10px" fill="#000" opacity="1">10</text><text text-anchor="end" transform="translate(-7,153)" font-family="sans-serif" font-size="10px" fill="#000" opacity="1">12</text><text text-anchor="end" transform="translate(-7,127.99999999999999)" font-family="sans-serif" font-size="10px" fill="#000" opacity="1">14</text><text text-anchor="end" transform="translate(-7,103.00000000000001)" font-family="sans-serif" font-size="10px" fill="#000" opacity="1">16</text><text text-anchor="end" transform="translate(-7,78)" font-family="sans-serif" font-size="10px" fill="#000" opacity="1">18</text><text text-anchor="end" transform="translate(-7,52.999999999999986)" font-family="sans-serif" font-size="10px" fill="#000" opacity="1">20</text><text text-anchor="end" transform="translate(-7,28.00000000000001)" font-family="sans-serif" font-size="10px" fill="#000" opacity="1">22</text><text text-anchor="end" transform="translate(-7,3)" font-family="sans-serif" font-size="10px" fill="#000" opacity="1">24</text></g><g class="mark-rule role-axis-domain" pointer-events="none"><line transform="translate(0,300)" x2="0" y2="-300" stroke="#888" stroke-width="1" opacity="1"/></g><g class="mark-text role-axis-title" pointer-events="none"><text text-anchor="middle" transform="translate(-22.466666221618652,150) rotate(-90) translate(0,-2)" font-family="sans-serif" font-size="11px" font-weight="bold" fill="#000" opacity="1"># objections</text></g></g><path class="foreground" aria-hidden="true" d="" pointer-events="none" display="none"/></g></g><g class="mark-area role-mark layer_0_marks" role="graphics-object" aria-roledescription="area mark container"><path aria-label="Annual emissions budget (% supply): 0; # objections: 24; value: 0" role="graphics-symbol" aria-roledescription="area mark" d="M0,0L0,37.5L73.65,37.5L73.65,50L98.2,50L98.2,62.5L122.75,62.5L122.75,87.5L171.85,87.5L171.85,100L196.4,100L196.4,100L220.95,100L220.95,112.5L245.5,112.5L245.5,212.5L270.05,212.5L270.05,212.5L294.6,212.5L294.6,212.5L368.25,212.5L368.25,225L441.9,225L441.9,275L491,275L491,287.5L540.1,287.5L540.1,287.5L589.2,287.5L589.2,287.5L613.75,287.5L613.75,287.5L662.85,287.5L662.85,300L810.15,300L810.15,300L982,300L982,300L810.15,300L810.15,300L662.85,300L662.85,300L613.75,300L613.75,300L589.2,300L589.2,300L540.1,300L540.1,300L491,300L491,300L441.9,300L441.9,300L368.25,300L368.25,300L294.6,300L294.6,300L270.05,300L270.05,300L245.5,300L245.5,300L220.95,300L220.95,300L196.4,300L196.4,300L171.85,300L171.85,300L122.75,300L122.75,300L98.2,300L98.2,300L73.65,300L73.65,300L0,300L0,300Z" fill="lightblue" opacity="0.5"/></g><g class="mark-area role-mark layer_1_marks" role="graphics-object" aria-roledescription="area mark container"><path aria-label="Annual emissions budget (% supply): 0; # objections: 0; value: 0" role="graphics-symbol" aria-roledescription="area mark" d="M0,300L73.65,300L73.65,300L98.2,300L98.2,300L122.75,300L122.75,300L171.85,300L171.85,300L196.4,300L196.4,275L220.95,275L220.95,275L245.5,275L245.5,250L270.05,250L270.05,237.5L294.6,237.5L294.6,225L368.25,225L368.25,175L441.9,175L441.9,175L491,175L491,112.5L540.1,112.5L540.1,87.5L589.2,87.5L589.2,62.5L613.75,62.5L613.75,25L662.85,25L662.85,25L810.15,25L810.15,12.5L982,12.5L982,0L982,300L982,300L810.15,300L810.15,300L662.85,300L662.85,300L613.75,300L613.75,300L589.2,300L589.2,300L540.1,300L540.1,300L491,300L491,300L441.9,300L441.9,300L368.25,300L368.25,300L294.6,300L294.6,300L270.05,300L270.05,300L245.5,300L245.5,300L220.95,300L220.95,300L196.4,300L196.4,300L171.85,300L171.85,300L122.75,300L122.75,300L98.2,300L98.2,300L73.65,300L73.65,300L0,300Z" fill="pink" opacity="0.5"/></g><g class="mark-group role-title"><g transform="translate(491,-22)"><path class="background" aria-hidden="true" d="M0,0h0v0h0Z" pointer-events="none"/><g><g class="mark-text role-title-text" role="graphics-symbol" aria-roledescription="title" aria-label="Title text 'Tolerance range for LPT emissions budget'" pointer-events="none"><text text-anchor="middle" transform="translate(0,10)" font-family="sans-serif" font-size="13px" font-weight="bold" fill="#000" opacity="1">Tolerance range for LPT emissions budget</text></g></g><path class="foreground" aria-hidden="true" d="" pointer-events="none" display="none"/></g></g></g><path class="foreground" aria-hidden="true" d="" display="none"/></g></g></g></svg>